<svg width="755" height="459" viewBox="0 0 755 459" fill="none" xmlns="http://www.w3.org/2000/svg">
<g opacity="0.5">
<path d="M67.4284 214.692L52.1927 185.31L52.4443 171.502H54.1216V166.656H38.2429V171.502H40.5073L40.1718 185.31L24.9361 214.692C23.4824 217.521 25.5231 220.911 28.7101 220.911H63.6824C66.8414 220.883 68.8821 217.521 67.4284 214.692Z" fill="#E1E4F5"/>
<path d="M665.229 299.786L652.621 275.473L652.817 264.073H654.214V260.068H641.075V264.073H642.948L642.669 275.473L630.061 299.786C628.859 302.138 630.536 304.911 633.164 304.911H662.098C664.754 304.939 666.431 302.138 665.229 299.786Z" fill="#E1E4F5"/>
<path d="M120.992 300.598L110.173 279.731L110.341 269.927H111.543V266.482H100.249V269.927H101.842L101.618 279.731L90.7996 300.598C89.7653 302.614 91.219 304.995 93.4834 304.995H118.336C120.572 304.995 122.026 302.614 120.992 300.598Z" fill="#E1E4F5"/>
<path d="M188.532 170.746H177.042V220.995H188.532V170.746Z" fill="#E1E4F5"/>
<path d="M624.861 338.607H613.372V388.856H624.861V338.607Z" fill="#E1E4F5"/>
<path d="M177.07 179.092H165.581V220.995H177.07V179.092Z" fill="#E1E4F5"/>
<path d="M165.58 182.061H154.09V220.995L165.581 220.995L165.58 182.061Z" fill="#E1E4F5"/>
<path d="M77.2413 377.344H17.752V388.856H77.2413V377.344Z" fill="#E1E4F5"/>
<path d="M59.5735 365.86H17.752V377.372H59.5735V365.86Z" fill="#E1E4F5"/>
<path d="M674.342 179.092H651.195V220.995H674.342V179.092Z" fill="#E1E4F5"/>
<path d="M381.073 195.534C375.817 195.898 371.401 194.413 367.766 191.08C364.16 187.747 362.343 183.378 362.343 177.944C362.343 172.622 364.16 168 367.822 164.107C371.456 160.214 376.013 158.085 381.492 157.693C387.95 157.245 393.038 159.457 396.728 164.303L389.376 170.521C387.139 167.888 384.456 166.656 381.381 166.88C378.865 167.048 376.796 168.14 375.174 170.129C373.553 172.118 372.742 174.471 372.742 177.215C372.742 179.988 373.553 182.229 375.174 183.966C376.796 185.702 378.865 186.487 381.381 186.319C383.142 186.207 384.651 185.73 385.882 184.89C387.139 184.05 388.342 182.873 389.572 181.333L397.148 186.207C395.247 188.923 393.038 191.108 390.522 192.733C387.978 194.329 384.847 195.254 381.073 195.534Z" fill="#E1E4F5"/>
<path d="M418.114 192.2V185.142L400.53 186.374L398.881 179.372L417.695 155.62L427.843 154.92V176.935L432.455 176.599V184.134L427.843 184.47V191.528L418.114 192.2ZM409.476 178.252L418.142 177.635V167.188L409.476 178.252Z" fill="#E1E4F5"/>
<path d="M437.151 190.856V154.528L447.215 153.827V167.412L460.131 166.516V152.903L470.195 152.203V188.559L460.131 189.26V175.451L447.215 176.347V190.156L437.151 190.856Z" fill="#E1E4F5"/>
<path d="M481.825 187.747V160.522L475.702 162.342L473.773 154.696L484.397 150.942L491.693 150.438V187.047L481.825 187.747Z" fill="#E1E4F5"/>
<path d="M526.33 179.876C523.227 183.742 519.173 185.87 514.113 186.206C509.081 186.57 505.028 185.03 501.953 181.641C498.905 178.252 497.368 173.854 497.368 168.476C497.368 163.183 498.933 158.589 502.036 154.724C505.14 150.858 509.193 148.73 514.225 148.394C519.257 148.029 523.311 149.57 526.386 152.987C529.433 156.404 530.97 160.774 530.97 166.124C530.97 171.417 529.405 176.011 526.33 179.876ZM509.361 174.835C510.591 176.599 512.24 177.411 514.225 177.271C516.238 177.131 517.831 176.095 519.033 174.162C520.236 172.23 520.851 169.793 520.851 166.852C520.851 163.939 520.208 161.586 518.95 159.821C517.692 158.029 516.07 157.217 514.113 157.357C512.1 157.497 510.507 158.533 509.305 160.438C508.103 162.37 507.488 164.807 507.488 167.776C507.488 170.717 508.103 173.07 509.361 174.835Z" fill="#E1E4F5"/>
<path d="M566.865 327.123H234.977V114.782H566.865V327.123ZM248.116 313.958H553.726V127.947H248.116V313.958Z" fill="#E1E4F5"/>
<path d="M15.5992 127.415H0V467.871H15.5992V127.415Z" fill="#E1E4F5"/>
<path d="M208.1 127.415H192.501V467.87H208.1V127.415Z" fill="#E1E4F5"/>
<path d="M205.026 388.856H3.74609V404.485H205.026V388.856Z" fill="#E1E4F5"/>
<path d="M205.026 304.939H3.74609V320.568H205.026V304.939Z" fill="#E1E4F5"/>
<path d="M205.026 220.994H3.74609V236.624H205.026V220.994Z" fill="#E1E4F5"/>
<path d="M205.026 137.078H3.74609V152.707H205.026V137.078Z" fill="#E1E4F5"/>
<path d="M608.927 127.415H593.328V467.871H608.927V127.415Z" fill="#E1E4F5"/>
<path d="M674.315 388.856H597.074V404.485H674.315V388.856Z" fill="#E1E4F5"/>
<path d="M674.315 304.939H597.074V320.568H674.315V304.939Z" fill="#E1E4F5"/>
<path d="M674.315 220.994H597.074V236.624H674.315V220.994Z" fill="#E1E4F5"/>
<path d="M674.315 137.078H597.074V152.707H674.315V137.078Z" fill="#E1E4F5"/>
<path d="M739.401 127.411H755V468H739.401V127.411Z" fill="#E1E4F5"/>
<path d="M674.013 388.954H751.254V404.59H674.013V388.954Z" fill="#E1E4F5"/>
<path d="M674.013 305.005H751.254V320.64H674.013V305.005Z" fill="#E1E4F5"/>
<path d="M674.013 221.027H751.254V236.663H674.013V221.027Z" fill="#E1E4F5"/>
<path d="M674.013 137.078H751.254V152.713H674.013V137.078Z" fill="#E1E4F5"/>
<path d="M667.717 360.174H624.834V388.856H667.717V360.174Z" fill="#E1E4F5"/>
<path d="M116.658 84H34.9162V137.078H116.658V84Z" fill="#E1E4F5"/>
</g>
<path d="M340.902 170.199L339.405 191.479L311.839 202.849L284.926 191.287L281.778 171.505C286.654 170.161 292.221 168.97 298.441 168.125V142.121H327.887V167.703C332.686 168.279 337.025 169.162 340.902 170.199Z" fill="white"/>
<path d="M311.839 204.001C311.685 204.001 311.531 203.963 311.378 203.924L284.465 192.362C284.12 192.209 283.851 191.863 283.774 191.479L280.626 171.697C280.549 171.121 280.895 170.545 281.47 170.391C286.615 168.97 291.951 167.895 297.25 167.127V142.121C297.25 141.468 297.749 140.969 298.401 140.969H327.848C328.501 140.969 329 141.468 329 142.121V166.704C333.146 167.242 337.254 168.048 341.17 169.085C341.708 169.239 342.053 169.738 342.015 170.276L340.556 191.556C340.518 191.978 340.249 192.362 339.865 192.555L312.299 203.924C312.146 203.963 311.992 204.001 311.839 204.001ZM285.962 190.48L311.839 201.619L338.291 190.711L339.673 171.083C335.834 170.084 331.803 169.354 327.733 168.855C327.157 168.778 326.735 168.279 326.735 167.703V143.273H299.592V168.125C299.592 168.701 299.169 169.201 298.593 169.278C293.372 169.969 288.151 171.006 283.083 172.35L285.962 190.48Z" fill="#2E2F33"/>
<path d="M277.055 170.197L292.872 248.402L293.448 468.534L222.192 468.112L242.387 341.394" fill="white"/>
<path d="M293.448 469.686C293.448 469.686 293.41 469.686 293.448 469.686L222.192 469.264C221.847 469.264 221.54 469.11 221.309 468.841C221.079 468.572 221.002 468.265 221.041 467.919L241.235 341.24C241.35 340.626 241.926 340.203 242.54 340.28C243.154 340.395 243.615 340.971 243.5 341.586L223.536 466.959L292.258 467.382L291.682 248.517L275.941 170.427C275.826 169.813 276.21 169.198 276.824 169.083C277.439 168.968 278.053 169.352 278.168 169.966L293.986 248.171C293.986 248.248 294.024 248.324 294.024 248.401L294.6 468.534C294.6 468.841 294.485 469.148 294.254 469.34C294.024 469.571 293.755 469.686 293.448 469.686Z" fill="#2E2F33"/>
<path d="M398.989 401.008L409.585 468.534H339.673L333.069 247.326L348.004 169.967L376.913 172.732C377.105 172.732 377.297 172.771 377.489 172.809C383.363 173.616 388.124 177.995 389.659 183.718L409.47 257.313C415.267 278.823 416.111 301.332 412.004 323.188L403.097 403.735L384.937 388.448L348.042 367.168L357.295 305.058L351.574 271.717" fill="white"/>
<path d="M409.585 469.686H339.673C339.059 469.686 338.521 469.187 338.521 468.572L331.918 247.364C331.918 247.287 331.918 247.21 331.956 247.095L346.891 169.736C347.006 169.159 347.544 168.737 348.119 168.814L377.029 171.579C377.221 171.618 377.451 171.618 377.643 171.656C383.939 172.501 389.084 177.11 390.773 183.41L410.584 257.005C416.381 278.515 417.264 301.446 413.156 323.379L404.249 403.888C404.21 404.311 403.942 404.656 403.519 404.848C403.135 405.002 402.675 404.925 402.368 404.656L400.486 403.081L410.737 468.38C410.776 468.726 410.699 469.033 410.468 469.302C410.238 469.532 409.931 469.686 409.585 469.686ZM340.787 467.381H408.242L397.876 401.199C397.876 401.084 397.876 400.969 397.876 400.854L384.285 389.446L347.467 368.204C347.044 367.974 346.814 367.513 346.891 367.052L356.105 305.134L350.423 271.985C350.308 271.371 350.73 270.756 351.344 270.641C351.959 270.526 352.573 270.948 352.688 271.563L358.409 304.903C358.447 305.019 358.447 305.134 358.409 305.287L349.271 366.63L385.475 387.525C385.552 387.563 385.59 387.602 385.629 387.64L402.137 401.545L410.814 323.148C410.814 323.11 410.814 323.11 410.814 323.072C414.845 301.485 414 278.899 408.28 257.696L388.546 183.986C387.088 178.608 382.672 174.652 377.336 173.922C377.144 173.884 376.99 173.884 376.798 173.846L348.926 171.195L334.183 247.402L340.787 467.381Z" fill="#2E2F33"/>
<path d="M292.912 273.063L293.219 396.439H337.408L333.838 274.907C333.3 256.547 334.797 238.225 338.253 220.21L347.966 169.969L335.987 168.663C335.987 168.663 329.576 190.672 311.724 190.672C293.871 190.672 291.184 168.586 291.184 168.586L276.94 170.199L287.882 224.243C291.222 240.299 292.873 256.662 292.912 273.063Z" fill="#006BFF"/>
<path d="M337.446 397.592H293.256C292.604 397.592 292.105 397.093 292.105 396.44L291.797 273.064C291.759 256.778 290.108 240.415 286.883 224.474L275.942 170.43C275.865 170.123 275.942 169.777 276.133 169.508C276.325 169.239 276.633 169.086 276.94 169.047L291.183 167.434C291.797 167.357 292.373 167.818 292.45 168.433C292.45 168.471 293.141 173.849 295.944 179.111C299.591 185.987 304.928 189.482 311.838 189.482C328.577 189.482 334.912 168.51 334.989 168.318C335.142 167.78 335.68 167.434 336.217 167.511L348.195 168.817C348.81 168.894 349.27 169.432 349.232 170.084C349.232 170.2 349.194 170.277 349.155 170.392L339.48 220.441C336.025 238.341 334.528 256.663 335.065 274.908L338.636 396.44C338.636 396.747 338.521 397.054 338.329 397.285C338.137 397.515 337.753 397.592 337.446 397.592ZM294.408 395.287H336.294L332.762 274.946C332.224 256.547 333.722 238.072 337.215 219.98L346.698 170.968L336.947 169.892C336.332 171.736 334.643 176 331.649 180.302C326.427 187.83 319.593 191.787 311.877 191.787C304.121 191.787 297.902 187.753 293.909 180.148C291.682 175.961 290.761 171.775 290.377 169.854L278.475 171.198L289.148 224.013C292.412 240.107 294.063 256.624 294.139 273.064L294.408 395.287Z" fill="#2E2F33"/>
<path d="M277.055 170.199L252.83 173.925C242.886 175.461 236.168 178.803 233.25 188.444L208.103 287.007C206.145 294.612 206.26 302.563 208.41 310.13C213.324 327.338 228.105 339.898 245.842 341.973L297.019 347.926L317.597 284.856L267.841 282.205L273.677 269.683" fill="white"/>
<path d="M297.019 349.078C296.981 349.078 296.943 349.078 296.904 349.078L245.728 343.124C227.453 341.012 212.365 328.182 207.297 310.475C205.109 302.754 204.994 294.535 206.99 286.776L232.175 188.213V188.175C235.554 176.959 244.038 174.193 252.677 172.849L276.902 169.123C277.516 169.008 278.131 169.469 278.207 170.083C278.284 170.698 277.862 171.313 277.248 171.389L253.022 175.115C243.885 176.537 237.243 179.379 234.364 188.79L209.178 287.313C207.297 294.688 207.412 302.486 209.485 309.822C214.285 326.646 228.605 338.822 245.958 340.82L296.213 346.658L316.024 285.892L267.765 283.319C267.381 283.28 267.035 283.088 266.843 282.742C266.651 282.397 266.613 282.013 266.805 281.667L272.64 269.145C272.909 268.569 273.6 268.338 274.176 268.607C274.752 268.876 274.982 269.568 274.714 270.144L269.569 281.129L317.636 283.703C317.982 283.703 318.327 283.895 318.519 284.202C318.711 284.509 318.788 284.855 318.673 285.201L298.094 348.271C297.979 348.732 297.519 349.078 297.019 349.078Z" fill="#2E2F33"/>
<path d="M327.884 142.234V154.18C323.891 157.522 317.941 159.635 311.337 159.635C306.5 159.635 302.046 158.521 298.438 156.6V142.234H327.884Z" fill="#2E2F33"/>
<path d="M311.338 160.788C306.462 160.788 301.816 159.674 297.9 157.6C297.516 157.408 297.286 157.024 297.286 156.563V142.197C297.286 141.544 297.785 141.045 298.438 141.045H327.885C328.537 141.045 329.036 141.544 329.036 142.197V154.143C329.036 154.489 328.883 154.796 328.614 155.026C324.276 158.714 317.979 160.788 311.338 160.788ZM299.59 155.872C303.045 157.562 307.115 158.483 311.338 158.483C317.212 158.483 322.778 156.717 326.733 153.644V143.388H299.59V155.872Z" fill="#2E2F33"/>
<path d="M248.416 388.909C247.955 388.909 247.494 388.64 247.341 388.18C247.11 387.603 247.417 386.912 247.993 386.681L276.442 375.888L282.354 370.472C282.815 370.05 283.544 370.088 283.967 370.549C284.389 371.01 284.351 371.74 283.89 372.162L277.824 377.732C277.709 377.847 277.594 377.924 277.44 377.962L248.8 388.832C248.684 388.871 248.531 388.909 248.416 388.909Z" fill="#2E2F33"/>
<path d="M372.497 51.1255C372.497 39.6022 363.706 30.1532 352.495 29.0777C350.46 22.8167 345.661 17.7465 339.595 15.365C336.37 7.06826 328.346 1.19141 318.94 1.19141C310.11 1.19141 302.509 6.33845 298.938 13.8286C293.371 14.0974 288.342 16.4405 284.579 20.0895C282.583 19.0524 280.318 18.4379 277.899 18.4379C269.952 18.4379 263.541 24.8909 263.541 32.8035C263.541 33.1108 263.541 33.4181 263.579 33.7254C259.855 37.6817 257.59 43.0208 257.59 48.8592C257.59 56.3878 261.352 63.0713 267.111 67.066C266.689 68.3719 266.458 69.7163 266.458 71.1375C266.458 78.474 272.409 84.4277 279.742 84.4277C287.075 84.4277 293.026 78.474 293.026 71.1375C293.026 69.7163 292.795 68.3335 292.373 67.066C295.598 64.7997 298.209 61.7269 299.86 58.1163C299.936 58.1163 299.975 58.1163 300.051 58.1163C306.194 58.1163 311.723 55.6196 315.754 51.5864C319.286 55.1586 324.008 57.5017 329.306 58.001C330.573 61.8421 332.838 65.2223 335.795 67.7958C335.142 69.3706 334.758 71.0991 334.758 72.9044C334.758 80.2409 340.709 86.1946 348.042 86.1946C355.375 86.1946 361.325 80.2409 361.325 72.9044C361.325 72.0978 361.249 71.2912 361.095 70.4845C367.89 66.7203 372.497 59.4606 372.497 51.1255Z" fill="#2E2F33"/>
<path d="M348.043 87.3463C340.095 87.3463 333.607 80.8548 333.607 72.9038C333.607 71.2521 333.876 69.6389 334.413 68.1024C331.726 65.5673 329.691 62.4944 328.424 59.0375C323.702 58.4229 319.249 56.3487 315.716 53.1606C311.532 56.9633 306.234 59.1143 300.552 59.2295C298.939 62.4944 296.559 65.2984 293.641 67.4879C293.948 68.6786 294.102 69.9077 294.102 71.1369C294.102 79.0879 287.613 85.5794 279.666 85.5794C271.719 85.5794 265.231 79.0879 265.231 71.1369C265.231 69.9077 265.384 68.6786 265.692 67.4879C259.818 63.0706 256.362 56.1567 256.362 48.8202C256.362 43.0586 258.474 37.5274 262.313 33.2638C262.313 33.1101 262.313 32.9181 262.313 32.7645C262.313 24.1988 269.262 17.2465 277.823 17.2465C280.05 17.2465 282.277 17.7458 284.312 18.6677C288.151 15.1723 292.988 13.0981 298.133 12.6756C302.087 4.955 310.15 0 318.865 0C328.386 0 336.794 5.6464 340.403 14.4425C346.43 16.9776 351.076 21.8558 353.264 28.0015C364.897 29.4995 373.573 39.2943 373.573 51.1248C373.573 59.3063 369.273 66.9117 362.248 71.0985C362.324 71.7131 362.363 72.2892 362.363 72.9038C362.478 80.8548 355.99 87.3463 348.043 87.3463ZM315.755 50.4334C316.062 50.4334 316.369 50.5487 316.561 50.7791C320.016 54.2361 324.547 56.3871 329.384 56.8865C329.845 56.9249 330.229 57.2322 330.382 57.6931C331.534 61.2653 333.684 64.4918 336.525 66.9885C336.909 67.2958 337.024 67.8336 336.832 68.2945C336.218 69.7925 335.911 71.3289 335.911 72.9806C335.911 79.6641 341.362 85.1184 348.043 85.1184C354.723 85.1184 360.175 79.6641 360.175 72.9806C360.175 72.2508 360.098 71.521 359.983 70.7912C359.906 70.2918 360.136 69.8309 360.558 69.562C367.239 65.8362 371.385 58.807 371.385 51.1632C371.385 40.293 363.246 31.3048 352.419 30.2678C351.959 30.2293 351.575 29.9221 351.421 29.4611C349.463 23.5074 345.01 18.7445 339.174 16.4398C338.867 16.3246 338.637 16.0941 338.521 15.7869C335.373 7.64376 327.656 2.34306 318.941 2.34306C310.879 2.34306 303.431 7.02919 299.976 14.3273C299.784 14.7114 299.4 14.9418 298.978 14.9802C293.871 15.2491 289.034 17.3617 285.387 20.9339C285.041 21.2796 284.504 21.3564 284.043 21.126C282.123 20.1273 280.05 19.5895 277.9 19.5895C270.606 19.5895 264.693 25.5048 264.693 32.8029C264.693 33.0717 264.693 33.3406 264.732 33.6479C264.77 33.9552 264.655 34.2625 264.425 34.4929C260.777 38.4109 258.743 43.5195 258.743 48.8586C258.743 55.7341 262.121 62.1872 267.765 66.1051C268.187 66.4123 268.341 66.9117 268.187 67.411C267.803 68.6018 267.611 69.8693 267.611 71.1369C267.611 77.8204 273.063 83.2747 279.743 83.2747C286.423 83.2747 291.875 77.8204 291.875 71.1369C291.875 69.8693 291.683 68.6018 291.299 67.411C291.146 66.9117 291.338 66.4123 291.721 66.1051C294.793 63.9541 297.25 61.0348 298.824 57.6163C299.016 57.1937 299.438 56.9633 299.861 56.9633H300.053C305.696 56.9633 310.956 54.7739 314.949 50.7791C315.141 50.5487 315.448 50.4334 315.755 50.4334Z" fill="#2E2F33"/>
<path d="M371.922 444.49C371.692 444.49 371.461 444.413 371.269 444.298L350.922 430.432C350.384 430.086 350.269 429.356 350.614 428.818C350.96 428.28 351.689 428.165 352.227 428.511L372.268 442.147L388.2 441.993C388.815 441.993 389.352 442.492 389.352 443.145C389.352 443.798 388.853 444.298 388.2 444.298L371.922 444.49Z" fill="#2E2F33"/>
<path d="M296.272 107.288C299.222 101.057 294.578 92.6708 285.898 88.556C277.218 84.4411 267.789 86.1561 264.838 92.3866C261.887 98.6171 266.532 107.004 275.212 111.119C283.892 115.234 293.321 113.518 296.272 107.288Z" fill="white"/>
<path d="M284.812 114.542C277.441 114.542 269.378 110.47 265.309 104.209C262.775 100.291 262.122 96.1814 263.504 92.6092C264.81 89.2674 267.766 86.8091 271.797 85.772C280.128 83.621 290.878 87.9998 295.792 95.5668C298.326 99.4847 298.978 103.595 297.596 107.167C296.291 110.509 293.335 112.967 289.304 114.004C287.845 114.35 286.348 114.542 284.812 114.542ZM267.228 102.942C271.643 109.74 281.28 113.658 288.689 111.738C291.991 110.893 294.41 108.934 295.446 106.283C296.56 103.403 295.984 100.022 293.872 96.7575C289.457 89.9588 279.821 86.0409 272.411 87.9614C269.109 88.8065 266.691 90.7654 265.654 93.4158C264.541 96.2966 265.117 99.6767 267.228 102.942Z" fill="#2E2F33"/>
<path d="M349.094 109.876C357.774 105.761 362.418 97.374 359.468 91.1435C356.517 84.913 347.088 83.1979 338.408 87.3129C329.728 91.4278 325.083 99.8145 328.034 106.045C330.985 112.276 340.414 113.991 349.094 109.876Z" fill="white"/>
<path d="M339.518 113.235C337.983 113.235 336.485 113.043 335.027 112.697C330.957 111.66 328.039 109.202 326.734 105.86C325.352 102.288 325.966 98.178 328.538 94.2601C333.452 86.6932 344.202 82.3144 352.533 84.4654C356.603 85.5024 359.521 87.9607 360.826 91.3025C362.208 94.8747 361.594 98.9846 359.022 102.903C354.952 109.164 346.89 113.235 339.518 113.235ZM347.926 86.1938C341.323 86.1938 334.105 89.8813 330.458 95.4893C328.346 98.7542 327.77 102.134 328.884 105.015C329.92 107.665 332.301 109.586 335.641 110.469C343.089 112.39 352.725 108.434 357.102 101.673C359.214 98.4085 359.789 95.0283 358.676 92.1475C357.639 89.4972 355.259 87.5766 351.919 86.6932C350.614 86.3475 349.27 86.1938 347.926 86.1938Z" fill="#2E2F33"/>
<path d="M350.344 101.022C350.344 133.749 329.267 154.414 312.067 154.414C297.056 154.414 273.906 133.71 273.906 101.022C273.906 81.0873 271.449 63.4567 279.703 52.7016C284.963 45.8261 294.637 41.793 312.106 41.793C326.541 41.793 335.525 45.5956 341.13 52.0487C350.344 62.7269 350.344 80.6647 350.344 101.022Z" fill="white"/>
<path d="M312.067 155.565C303.851 155.565 294.061 149.88 286.498 140.7C277.668 130.022 272.792 115.925 272.792 100.983C272.792 97.1807 272.715 93.4164 272.6 89.8058C272.216 74.3263 271.909 60.9593 278.819 51.9712C284.77 44.2122 295.366 40.6016 312.144 40.6016C326.08 40.6016 335.832 44.0969 342.013 51.2798C351.496 62.2653 351.496 80.2031 351.496 100.983C351.496 116.156 346.889 130.252 338.557 140.662C331.109 149.996 321.204 155.565 312.067 155.565ZM312.144 42.9446C296.134 42.9446 286.114 46.2864 280.624 53.4308C274.212 61.7659 274.519 74.7872 274.903 89.8058C274.98 93.4164 275.095 97.1807 275.095 101.022C275.095 115.387 279.779 128.985 288.264 139.241C295.405 147.883 304.542 153.261 312.067 153.261C329.612 153.261 349.192 131.789 349.192 101.022C349.192 80.7025 349.192 63.1487 340.285 52.8162C334.565 46.1711 325.351 42.9446 312.144 42.9446Z" fill="#2E2F33"/>
<path d="M310.456 120.649C310.187 120.649 309.88 120.534 309.688 120.342C309.228 119.919 309.189 119.189 309.612 118.728L314.334 113.62L310.917 82.7759C310.84 82.1613 311.301 81.5852 311.953 81.5084C312.568 81.4315 313.144 81.8925 313.22 82.5455L316.714 113.927C316.752 114.273 316.637 114.58 316.407 114.849L311.339 120.342C311.07 120.534 310.763 120.649 310.456 120.649Z" fill="#2E2F33"/>
<path d="M341.17 52.0467C330.804 50.0494 322.358 55.9262 308.652 55.9262C294.831 55.9262 294.831 49.9725 284.004 51.048C282.469 51.2017 281.087 51.8163 279.781 52.6997C285.041 45.8242 294.716 41.791 312.184 41.791C326.581 41.791 335.565 45.5553 341.17 52.0467Z" fill="#2E2F33"/>
<path d="M341.016 74.4398C340.863 74.4398 340.671 74.4014 340.517 74.3246C340.402 74.2862 329.767 69.1391 322.435 72.6729C321.859 72.9418 321.168 72.7113 320.899 72.1352C320.63 71.559 320.86 70.8676 321.436 70.5987C329.806 66.5656 341.093 72.0199 341.554 72.2504C342.13 72.5193 342.36 73.2107 342.091 73.7868C341.861 74.2094 341.439 74.4398 341.016 74.4398Z" fill="#2E2F33"/>
<path d="M293.027 99.8671C294.617 99.8671 295.906 98.1646 295.906 96.0644C295.906 93.9642 294.617 92.2617 293.027 92.2617C291.437 92.2617 290.147 93.9642 290.147 96.0644C290.147 98.1646 291.437 99.8671 293.027 99.8671Z" fill="#2E2F33"/>
<path d="M293.026 101.02C290.8 101.02 288.995 98.7922 288.995 96.065C288.995 93.3379 290.8 91.1484 293.026 91.1484C295.253 91.1484 297.057 93.3763 297.057 96.065C297.057 98.7922 295.253 101.02 293.026 101.02ZM293.026 93.4531C292.105 93.4531 291.299 94.6438 291.299 96.065C291.299 97.4862 292.066 98.7154 293.026 98.7154C293.948 98.7154 294.754 97.5246 294.754 96.065C294.754 94.6438 293.948 93.4531 293.026 93.4531Z" fill="#2E2F33"/>
<path d="M331.457 99.8671C333.047 99.8671 334.336 98.1646 334.336 96.0644C334.336 93.9642 333.047 92.2617 331.457 92.2617C329.866 92.2617 328.577 93.9642 328.577 96.0644C328.577 98.1646 329.866 99.8671 331.457 99.8671Z" fill="#2E2F33"/>
<path d="M331.457 101.02C329.23 101.02 327.426 98.7922 327.426 96.065C327.426 93.3379 329.23 91.1484 331.457 91.1484C333.684 91.1484 335.488 93.3763 335.488 96.065C335.488 98.7922 333.684 101.02 331.457 101.02ZM331.457 93.4531C330.536 93.4531 329.729 94.6438 329.729 96.065C329.729 97.4862 330.497 98.7154 331.457 98.7154C332.378 98.7154 333.185 97.5246 333.185 96.065C333.185 94.6438 332.378 93.4531 331.457 93.4531Z" fill="#2E2F33"/>
<path d="M297.173 93.4531H288.918C288.266 93.4531 287.767 92.9538 287.767 92.3008C287.767 91.6478 288.266 91.1484 288.918 91.1484H297.173C297.825 91.1484 298.324 91.6478 298.324 92.3008C298.324 92.9538 297.787 93.4531 297.173 93.4531Z" fill="#2E2F33"/>
<path d="M335.257 93.4531H327.694C327.041 93.4531 326.542 92.9538 326.542 92.3008C326.542 91.6478 327.041 91.1484 327.694 91.1484H335.257C335.91 91.1484 336.409 91.6478 336.409 92.3008C336.409 92.9538 335.871 93.4531 335.257 93.4531Z" fill="#2E2F33"/>
<path d="M284.004 74.4405C283.581 74.4405 283.159 74.2101 282.967 73.7876C282.698 73.2114 282.929 72.52 283.505 72.2511C283.927 72.0591 293.602 67.4113 303.469 70.5226C304.083 70.7147 304.428 71.3677 304.236 71.9822C304.044 72.5968 303.392 72.9425 302.778 72.7505C293.755 69.9081 284.618 74.3253 284.541 74.3637C284.349 74.4021 284.157 74.4405 284.004 74.4405Z" fill="#2E2F33"/>
<path d="M293.181 373.93C293.181 373.93 318.443 377.732 336.832 373.93L339.673 468.536H293.449L293.181 373.93Z" fill="white"/>
<path d="M339.673 469.687H293.449C292.796 469.687 292.297 469.188 292.297 468.535L292.066 373.929C292.066 373.583 292.22 373.276 292.45 373.046C292.681 372.815 293.026 372.738 293.372 372.777C293.64 372.815 318.672 376.503 336.64 372.777C336.985 372.7 337.331 372.777 337.599 373.007C337.868 373.199 338.022 373.545 338.022 373.891L340.863 468.497C340.863 468.804 340.748 469.111 340.556 469.342C340.287 469.534 339.98 469.687 339.673 469.687ZM294.6 467.383H338.521L335.757 375.35C319.977 378.27 299.706 375.965 294.37 375.274L294.6 467.383Z" fill="#2E2F33"/>
<path d="M318.443 458.587C317.79 458.587 317.291 458.049 317.291 457.396L317.751 436.424L315.141 394.479C315.102 393.826 315.601 393.289 316.216 393.25C316.83 393.212 317.406 393.711 317.444 394.326L320.055 436.347C320.055 436.386 320.055 436.424 320.055 436.462L319.594 457.511C319.594 458.088 319.095 458.587 318.443 458.587Z" fill="#2E2F33"/>
<path d="M314.526 395.556C301.434 395.556 293.334 393.942 293.218 393.904C292.604 393.789 292.182 393.174 292.335 392.56C292.451 391.945 293.065 391.523 293.679 391.676C293.871 391.715 311.723 395.248 337.254 391.676C337.868 391.599 338.483 392.022 338.56 392.675C338.636 393.328 338.214 393.904 337.561 393.981C328.885 395.133 321.091 395.556 314.526 395.556Z" fill="#2E2F33"/>
<path d="M315.485 396.439C321.783 396.439 326.888 391.331 326.888 385.031C326.888 378.731 321.783 373.623 315.485 373.623C309.188 373.623 304.083 378.731 304.083 385.031C304.083 391.331 309.188 396.439 315.485 396.439Z" fill="white"/>
<path d="M315.486 397.591C308.575 397.591 302.932 391.945 302.932 385.031C302.932 378.117 308.575 372.471 315.486 372.471C322.396 372.471 328.04 378.117 328.04 385.031C328.04 391.945 322.435 397.591 315.486 397.591ZM315.486 374.775C309.842 374.775 305.235 379.385 305.235 385.031C305.235 390.677 309.842 395.287 315.486 395.287C321.129 395.287 325.737 390.677 325.737 385.031C325.737 379.385 321.168 374.775 315.486 374.775Z" fill="#2E2F33"/>
<path d="M297.019 231.119C296.828 231.119 296.636 231.08 296.482 230.965C295.906 230.658 295.714 229.966 296.021 229.39C298.094 225.549 295.983 218.981 295.945 218.942C295.753 218.328 296.06 217.675 296.674 217.483C297.288 217.291 297.941 217.598 298.133 218.212C298.248 218.52 300.59 225.779 298.056 230.504C297.826 230.888 297.442 231.119 297.019 231.119Z" fill="#2E2F33"/>
<path d="M298.438 175.269C297.785 175.269 297.286 174.77 297.286 174.117V168.125C297.286 167.472 297.785 166.973 298.438 166.973C299.091 166.973 299.59 167.472 299.59 168.125V174.117C299.59 174.732 299.052 175.269 298.438 175.269Z" fill="#2E2F33"/>
<path d="M327.885 173.656C327.233 173.656 326.733 173.156 326.733 172.503V167.74C326.733 167.087 327.233 166.588 327.885 166.588C328.538 166.588 329.037 167.087 329.037 167.74V172.503C329.037 173.118 328.538 173.656 327.885 173.656Z" fill="#2E2F33"/>
<path d="M315.484 291.346L336.83 299.066L313.526 298.605L315.484 291.346Z" fill="white"/>
<path d="M336.831 300.219L313.527 299.758C313.181 299.758 312.836 299.566 312.644 299.297C312.414 299.028 312.375 298.644 312.452 298.298L314.372 291.039C314.448 290.731 314.679 290.463 314.947 290.309C315.216 290.155 315.562 290.155 315.869 290.232L337.215 297.953C337.752 298.145 338.059 298.682 337.944 299.259C337.867 299.835 337.407 300.219 336.831 300.219ZM315.024 297.492L329.844 297.799L316.253 292.882L315.024 297.492Z" fill="#2E2F33"/>
<path d="M384.937 389.6C384.822 389.6 384.668 389.562 384.553 389.523L351.152 377.923C350.998 377.885 350.883 377.808 350.768 377.693L347.581 374.773L347.543 374.735L344.702 372.123C344.241 371.701 344.203 370.971 344.625 370.51C345.048 370.049 345.777 370.011 346.238 370.433L347.658 371.739L348.541 367.975C348.618 367.629 348.887 367.322 349.194 367.168C349.539 367.014 349.923 367.053 350.23 367.207L385.513 387.411C386.012 387.718 386.242 388.332 385.973 388.87C385.782 389.37 385.359 389.6 384.937 389.6ZM352.15 375.849L373.65 383.301L350.461 370.011L349.655 373.506L352.15 375.849Z" fill="#2E2F33"/>
<path opacity="0.68" d="M324.122 352.841C320.552 352.534 317.903 349.423 318.21 345.851L323.815 277.863L336.715 278.939L331.11 346.926C330.841 350.498 327.693 353.149 324.122 352.841Z" fill="white"/>
<path d="M324.661 354.032C324.431 354.032 324.239 354.032 324.008 353.994C319.824 353.648 316.676 349.961 317.021 345.774L322.626 277.787C322.665 277.479 322.78 277.21 323.01 277.018C323.241 276.826 323.548 276.711 323.855 276.75L336.755 277.825C337.407 277.863 337.868 278.44 337.791 279.054L332.186 347.041C332.032 349.077 331.073 350.921 329.498 352.227C328.193 353.379 326.466 354.032 324.661 354.032ZM324.853 279.131L319.363 345.966C319.133 348.885 321.321 351.459 324.239 351.728C325.659 351.843 327.041 351.42 328.116 350.498C329.191 349.577 329.882 348.271 329.998 346.888L335.488 280.053L324.853 279.131Z" fill="#2E2F33"/>
<g opacity="0.84">
<path opacity="0.84" d="M324.122 352.844C320.552 352.536 317.903 349.425 318.21 345.853L321.089 310.822L333.989 311.898L331.11 346.928C330.841 350.501 327.693 353.151 324.122 352.844Z" fill="url(#paint0_linear)"/>
<path opacity="0.84" d="M324.661 354.034C324.431 354.034 324.239 354.034 324.008 353.995C319.824 353.65 316.676 349.962 317.021 345.775L319.9 310.745C319.939 310.092 320.515 309.631 321.129 309.708L334.029 310.783C334.336 310.822 334.605 310.937 334.797 311.167C334.989 311.398 335.104 311.705 335.065 312.012L332.186 347.043C332.032 349.079 331.073 350.922 329.498 352.228C328.193 353.381 326.466 354.034 324.661 354.034ZM322.127 312.089L319.325 345.967C319.094 348.887 321.283 351.46 324.2 351.729C325.621 351.844 327.003 351.422 328.078 350.5C329.153 349.578 329.844 348.272 329.959 346.889L332.762 313.011L322.127 312.089Z" fill="#2E2F33"/>
</g>
<path d="M313.528 298.605L302.011 333.943H339.674L343.014 309.36L342.399 299.22L313.528 298.605Z" fill="white"/>
<path d="M339.673 335.096H302.01C301.626 335.096 301.28 334.904 301.089 334.635C300.897 334.366 300.82 333.944 300.935 333.598L312.453 298.26C312.606 297.76 313.067 297.453 313.566 297.453L342.399 298.068C343.013 298.068 343.473 298.567 343.512 299.143L344.126 309.284C344.126 309.361 344.126 309.437 344.126 309.514L340.786 334.097C340.748 334.673 340.249 335.096 339.673 335.096ZM303.622 332.791H338.674L341.861 309.322L341.324 300.372L314.372 299.796L303.622 332.791Z" fill="#2E2F33"/>
<path d="M342.399 310.514H327.733C327.08 310.514 326.581 310.014 326.581 309.361C326.581 308.708 327.08 308.209 327.733 308.209H342.399C343.051 308.209 343.55 308.708 343.55 309.361C343.55 310.014 343.013 310.514 342.399 310.514Z" fill="#2E2F33"/>
<path d="M341.209 318.541L323.51 318.426C322.857 318.426 322.358 317.888 322.358 317.273C322.358 316.659 322.857 316.121 323.51 316.121L341.209 316.236C341.862 316.236 342.361 316.774 342.361 317.389C342.361 318.042 341.823 318.541 341.209 318.541Z" fill="#2E2F33"/>
<path d="M339.75 326.531H320.669C320.017 326.531 319.518 326.032 319.518 325.379C319.518 324.726 320.017 324.227 320.669 324.227H339.75C340.403 324.227 340.902 324.726 340.902 325.379C340.902 326.032 340.403 326.531 339.75 326.531Z" fill="#2E2F33"/>
<path d="M336.716 274.984L324.776 273.985C323.01 273.831 321.475 275.137 321.36 276.904L321.168 279.209C321.014 280.976 322.319 282.512 324.085 282.627L336.025 283.626C337.791 283.78 339.327 282.474 339.442 280.707L339.634 278.402C339.749 276.674 338.444 275.137 336.716 274.984Z" fill="white"/>
<path d="M336.256 284.816C336.141 284.816 336.026 284.816 335.911 284.816L323.971 283.817C322.819 283.741 321.782 283.203 321.014 282.319C320.285 281.436 319.901 280.322 320.016 279.17L320.208 276.865C320.285 275.713 320.823 274.676 321.706 273.908C322.589 273.178 323.702 272.794 324.854 272.909L336.794 273.908C339.174 274.1 340.94 276.212 340.748 278.594L340.556 280.898C340.402 283.088 338.483 284.816 336.256 284.816ZM324.547 275.137C324.086 275.137 323.625 275.29 323.241 275.636C322.819 275.982 322.589 276.481 322.55 277.019L322.358 279.323C322.32 279.861 322.473 280.399 322.819 280.783C323.164 281.206 323.664 281.436 324.201 281.474L336.141 282.473C337.254 282.55 338.252 281.743 338.329 280.629L338.521 278.325C338.598 277.211 337.792 276.212 336.678 276.135L324.738 275.137C324.623 275.175 324.585 275.137 324.547 275.137Z" fill="#2E2F33"/>
<path d="M331.61 265.457C329.729 265.303 328.116 266.686 327.963 268.568L327.502 274.253L334.259 274.791L334.72 269.106C334.873 267.262 333.491 265.611 331.61 265.457Z" fill="white"/>
<path d="M334.26 275.942C334.221 275.942 334.183 275.942 334.183 275.942L327.426 275.404C326.773 275.365 326.312 274.789 326.389 274.175L326.85 268.49C326.965 267.299 327.503 266.185 328.424 265.417C329.345 264.649 330.536 264.265 331.726 264.342C332.916 264.457 334.029 264.995 334.797 265.916C335.565 266.838 335.949 268.029 335.872 269.22L335.411 274.905C335.373 275.212 335.258 275.481 335.027 275.673C334.797 275.865 334.528 275.942 334.26 275.942ZM328.731 273.176L333.185 273.56L333.568 269.028C333.607 268.452 333.415 267.837 333.031 267.415C332.647 266.992 332.11 266.685 331.495 266.646C330.919 266.608 330.305 266.8 329.883 267.184C329.422 267.568 329.153 268.106 329.115 268.72L328.731 273.176Z" fill="#2E2F33"/>
<path d="M304.083 130.637C304.083 130.637 308.652 130.637 315.025 132.672L304.083 130.637Z" fill="white"/>
<path d="M315.063 133.825C314.948 133.825 314.833 133.825 314.718 133.786C308.575 131.827 304.16 131.789 304.121 131.789C303.469 131.789 302.97 131.29 302.97 130.637C302.97 129.984 303.469 129.484 304.121 129.484C304.313 129.484 308.921 129.523 315.409 131.559C316.023 131.751 316.369 132.404 316.138 133.018C315.985 133.518 315.524 133.825 315.063 133.825Z" fill="#2E2F33"/>
<path d="M301.281 132.67C301.281 132.67 305.773 131.863 302.971 127.139L301.281 132.67Z" fill="white"/>
<path d="M301.281 133.823C300.744 133.823 300.244 133.439 300.129 132.862C300.014 132.248 300.436 131.633 301.051 131.518C301.089 131.518 302.241 131.249 302.586 130.481C302.932 129.713 302.433 128.56 301.934 127.715C301.588 127.178 301.78 126.448 302.318 126.14C302.855 125.795 303.585 125.987 303.892 126.525C305.043 128.407 305.274 130.058 304.66 131.441C303.815 133.323 301.665 133.746 301.435 133.784C301.435 133.823 301.358 133.823 301.281 133.823Z" fill="#2E2F33"/>
<path d="M298.44 118.613C298.44 118.613 292.412 119.612 293.103 127.141L298.44 118.613Z" fill="white"/>
<path d="M293.103 128.293C292.527 128.293 292.028 127.832 291.951 127.256C291.145 118.767 298.171 117.499 298.247 117.499C298.862 117.384 299.476 117.807 299.553 118.46C299.668 119.074 299.246 119.689 298.593 119.766C298.094 119.842 293.64 120.841 294.216 127.025C294.293 127.678 293.794 128.216 293.18 128.293C293.18 128.293 293.141 128.293 293.103 128.293Z" fill="#2E2F33"/>
<defs>
<linearGradient id="paint0_linear" x1="318.179" y1="331.861" x2="333.999" y2="331.861" gradientUnits="userSpaceOnUse">
<stop stop-color="#FF19A9"/>
<stop offset="1" stop-color="#BC1AFF"/>
</linearGradient>
</defs>
</svg>
