<svg width="318" height="508" viewBox="0 0 318 508" fill="none" xmlns="http://www.w3.org/2000/svg">
<path d="M305.814 235.407C328.119 371.523 311.298 438.737 279.501 472.046C247.685 505.373 200.281 505.476 159 505.476C117.719 505.476 70.3151 505.373 38.4994 472.046C6.7015 438.737 -10.1189 371.523 12.1861 235.407C20.7262 183.291 77.4175 139.801 159 139.801C240.583 139.801 297.274 183.291 305.814 235.407Z" fill="#F0F2FA" stroke="#F0F2FA" stroke-width="4"/>
<mask id="mask0" mask-type="alpha" maskUnits="userSpaceOnUse" x="2" y="0" width="313" height="504">
<path d="M285.572 132.929C307.17 231.337 314.236 303.583 311.597 356.588C308.957 409.597 296.621 443.195 279.583 464.501C262.578 485.765 240.694 495.026 218.412 498.968C200.562 502.126 182.607 501.857 166.702 501.619C162.666 501.559 158.762 501.5 155.025 501.5C152.459 501.5 149.83 501.517 147.151 501.535C111.303 501.773 66.2174 502.071 36.3079 461.562C20.1905 439.733 8.3315 405.844 4.96973 353.185C1.60848 300.535 6.75179 229.274 24.4919 132.862C37.6475 61.365 83.2265 2 155.025 2C226.786 2 269.961 61.8039 285.572 132.929Z" fill="#C4C4C4" stroke="white" stroke-width="4"/>
</mask>
<g mask="url(#mask0)">
<g clip-path="url(#clip0)">
<path d="M189.72 197.749L188.157 219.723L159.678 231.456L131.878 219.509L128.629 199.078C134.279 197.541 140.026 196.38 145.83 195.603V168.762H176.264V195.179C180.804 195.718 185.301 196.577 189.72 197.749Z" fill="white"/>
<path d="M159.678 232.645C159.517 232.645 159.358 232.613 159.21 232.55L131.409 220.602C131.225 220.523 131.063 220.398 130.939 220.239C130.816 220.08 130.735 219.893 130.703 219.694L127.454 199.263C127.409 198.974 127.472 198.678 127.63 198.432C127.789 198.186 128.033 198.007 128.315 197.93C133.682 196.471 139.133 195.348 144.639 194.566V168.76C144.639 168.445 144.765 168.142 144.988 167.919C145.211 167.696 145.514 167.57 145.829 167.57H176.264C176.579 167.57 176.882 167.696 177.105 167.919C177.328 168.142 177.454 168.445 177.454 168.76V194.146C181.696 194.69 185.898 195.508 190.033 196.597C190.3 196.668 190.534 196.831 190.695 197.056C190.856 197.281 190.933 197.555 190.914 197.831L189.351 219.809C189.335 220.03 189.258 220.242 189.128 220.421C188.999 220.601 188.821 220.74 188.617 220.825L160.138 232.558C159.992 232.617 159.836 232.646 159.678 232.645ZM132.949 218.675L159.686 230.178L187.022 218.917L188.446 198.648C184.386 197.617 180.264 196.85 176.105 196.351C175.815 196.316 175.548 196.175 175.354 195.956C175.161 195.737 175.056 195.454 175.058 195.161V169.95H147.019V195.61C147.022 195.899 146.919 196.18 146.729 196.399C146.539 196.619 146.275 196.761 145.988 196.799C140.589 197.525 135.241 198.584 129.973 199.973L132.949 218.675Z" fill="black"/>
<path d="M123.741 197.748L140.077 278.494L140.664 505.81L67.0498 505.374L79.383 427.984" fill="white"/>
<path d="M140.665 507L67.0579 506.564C66.8867 506.563 66.7177 506.524 66.5625 506.452C66.4074 506.379 66.2698 506.274 66.159 506.143C66.0483 506.013 65.9671 505.859 65.921 505.695C65.8748 505.53 65.8648 505.357 65.8917 505.188L78.2249 427.793C78.2775 427.482 78.4517 427.204 78.7091 427.021C78.9665 426.838 79.286 426.765 79.5975 426.817C79.9089 426.87 80.1866 427.044 80.3697 427.301C80.5527 427.559 80.6259 427.878 80.5733 428.19L68.4424 504.192L139.451 504.612L138.887 278.633L122.595 197.986C122.561 197.832 122.559 197.672 122.587 197.517C122.615 197.362 122.674 197.214 122.761 197.081C122.847 196.949 122.959 196.835 123.089 196.746C123.22 196.658 123.367 196.596 123.522 196.565C123.676 196.533 123.836 196.533 123.991 196.564C124.146 196.595 124.293 196.656 124.424 196.745C124.554 196.833 124.666 196.947 124.753 197.079C124.84 197.211 124.899 197.359 124.928 197.514L141.24 278.26C141.256 278.337 141.264 278.415 141.264 278.494L141.851 505.806C141.851 505.964 141.82 506.12 141.76 506.266C141.699 506.412 141.61 506.544 141.498 506.655C141.276 506.875 140.977 506.999 140.665 507Z" fill="black"/>
<path d="M249.744 436.103L260.688 505.83H188.446L181.615 277.376L197.086 197.49L226.926 200.326L227.513 200.394C233.586 201.211 238.505 205.745 240.096 211.659L260.569 287.677C266.543 309.871 267.445 333.124 263.207 355.714L253.984 438.88L235.205 423.113L197.086 401.158L206.643 337.012L200.744 302.575" fill="white"/>
<path d="M260.688 507H188.446C188.137 507 187.839 506.88 187.617 506.664C187.395 506.449 187.265 506.155 187.256 505.846L180.425 277.411C180.423 277.323 180.431 277.235 180.449 277.149L195.92 197.264C195.976 196.974 196.137 196.715 196.374 196.538C196.61 196.36 196.903 196.277 197.197 196.304L227.064 199.144C227.275 199.144 227.489 199.187 227.695 199.215C230.905 199.669 233.908 201.064 236.324 203.224C238.741 205.383 240.464 208.211 241.274 211.349L261.72 287.359C267.705 309.715 268.615 333.127 264.382 355.88L255.166 439.018C255.145 439.233 255.065 439.438 254.935 439.611C254.806 439.785 254.631 439.919 254.431 440.001C254.231 440.082 254.012 440.108 253.799 440.074C253.585 440.041 253.384 439.95 253.219 439.811L251.279 438.181L261.863 505.612C261.889 505.782 261.878 505.957 261.83 506.123C261.782 506.289 261.699 506.443 261.586 506.574C261.472 506.704 261.332 506.809 261.174 506.88C261.017 506.95 260.845 506.986 260.672 506.984L260.688 507ZM189.597 504.62H259.296L248.585 436.269C248.565 436.147 248.565 436.023 248.585 435.9L234.534 424.104L196.491 402.189C196.287 402.071 196.122 401.895 196.019 401.683C195.915 401.471 195.876 401.233 195.908 400.999L205.429 337.043L199.554 302.777C199.52 302.619 199.518 302.457 199.549 302.299C199.579 302.142 199.642 301.992 199.732 301.858C199.822 301.725 199.938 301.612 200.073 301.525C200.209 301.438 200.36 301.379 200.518 301.353C200.677 301.326 200.839 301.331 200.996 301.369C201.152 301.407 201.299 301.475 201.428 301.572C201.557 301.668 201.665 301.789 201.746 301.928C201.827 302.067 201.878 302.22 201.898 302.38L207.817 336.821C207.837 336.953 207.837 337.086 207.817 337.218L198.383 400.531L235.8 422.097C235.86 422.131 235.918 422.17 235.97 422.216L253.048 436.555L262.021 355.583C262.019 355.552 262.019 355.522 262.021 355.491C266.197 333.075 265.303 310.008 259.403 287.982L238.957 211.968C238.268 209.283 236.799 206.864 234.735 205.014C232.671 203.165 230.105 201.968 227.362 201.575C227.183 201.551 227.001 201.528 226.819 201.512L198.03 198.775L182.809 277.47L189.597 504.62Z" fill="black"/>
<path d="M140.145 303.951L140.47 431.371H186.15L182.456 305.875C181.898 286.934 183.432 267.989 187.03 249.384L197.067 197.49L184.726 196.13C184.726 196.13 178.097 218.85 159.67 218.85C141.244 218.85 138.463 196.066 138.463 196.066L123.742 197.748L135.028 253.545C138.386 270.138 140.1 287.022 140.145 303.951Z" fill="#006BFF"/>
<path d="M186.149 432.561H140.47C140.154 432.561 139.852 432.436 139.628 432.213C139.405 431.99 139.28 431.687 139.28 431.371L138.951 303.956C138.906 287.104 137.202 270.297 133.861 253.779L122.595 197.987C122.562 197.825 122.563 197.658 122.598 197.497C122.632 197.336 122.7 197.184 122.797 197.05C122.894 196.917 123.018 196.804 123.161 196.721C123.303 196.638 123.462 196.585 123.626 196.567L138.348 194.885C138.66 194.849 138.974 194.938 139.22 195.133C139.467 195.328 139.627 195.612 139.665 195.924C140.251 199.772 141.453 203.5 143.223 206.967C146.98 214.067 152.51 217.676 159.654 217.676C176.958 217.676 183.503 196.031 183.567 195.813C183.641 195.533 183.816 195.29 184.057 195.129C184.298 194.969 184.589 194.901 184.876 194.94L197.233 196.293C197.546 196.327 197.834 196.484 198.031 196.729C198.229 196.974 198.322 197.288 198.288 197.602C198.278 197.707 198.252 197.809 198.213 197.907L188.216 249.595C184.64 268.114 183.113 286.97 183.662 305.824L187.339 431.344C187.344 431.503 187.317 431.662 187.259 431.81C187.202 431.959 187.115 432.094 187.004 432.208C186.893 432.323 186.76 432.414 186.613 432.476C186.466 432.538 186.309 432.569 186.149 432.569V432.561ZM141.66 430.182H184.924L181.266 305.907C180.71 286.88 182.251 267.849 185.86 249.158L195.654 198.534L185.558 197.427C184.218 201.238 182.377 204.854 180.084 208.18C174.669 215.963 167.612 220.048 159.67 220.048C151.665 220.048 145.246 215.887 141.105 208.018C139.379 204.668 138.154 201.084 137.467 197.38L125.169 198.784L136.198 253.307C139.568 269.979 141.289 286.943 141.335 303.952L141.66 430.182Z" fill="black"/>
<path d="M122.9 197.879L98.7256 201.611C88.4473 203.198 81.5051 206.645 78.4942 216.605L53.3041 308.489C51.0172 316.988 50.5883 325.881 52.0466 334.561L68.442 432.137L122.416 411.665L111.091 336.825C110.236 332.626 110.339 328.287 111.392 324.133L119.996 291.389" fill="white"/>
<path d="M68.4422 433.327C68.1576 433.331 67.881 433.233 67.6626 433.05C67.4442 432.868 67.2986 432.613 67.2521 432.332L50.8726 334.772C49.373 325.925 49.8101 316.858 52.1539 308.196L77.3718 216.288C80.8746 204.686 89.6257 201.815 98.5672 200.422L123.579 196.563C123.733 196.539 123.891 196.546 124.043 196.583C124.195 196.62 124.338 196.686 124.464 196.778C124.59 196.871 124.697 196.987 124.778 197.12C124.859 197.254 124.914 197.402 124.938 197.557C124.961 197.711 124.955 197.869 124.918 198.02C124.881 198.172 124.814 198.315 124.722 198.442C124.63 198.568 124.514 198.674 124.38 198.756C124.246 198.837 124.098 198.891 123.944 198.915L98.9282 202.774C89.4869 204.234 82.6003 207.197 79.6608 216.935L54.4508 308.803C52.195 317.138 51.7755 325.863 53.2211 334.375L69.3745 430.507L121.096 410.889L109.921 337.033C109.041 332.661 109.15 328.148 110.238 323.824L118.842 291.073C118.923 290.767 119.121 290.506 119.394 290.347C119.53 290.268 119.679 290.217 119.834 290.196C119.989 290.174 120.147 290.184 120.298 290.224C120.45 290.264 120.592 290.333 120.716 290.428C120.841 290.522 120.945 290.641 121.024 290.776C121.103 290.911 121.154 291.061 121.176 291.216C121.197 291.371 121.187 291.528 121.147 291.68L112.543 324.419C111.542 328.404 111.445 332.561 112.257 336.588V336.648L123.583 411.484C123.624 411.753 123.572 412.028 123.435 412.264C123.298 412.499 123.084 412.68 122.829 412.777L68.8548 433.244C68.7232 433.296 68.5835 433.324 68.4422 433.327Z" fill="black"/>
<path d="M176.264 168.859V181.207C172.13 184.658 166.005 186.839 159.174 186.839C154.537 186.886 149.958 185.807 145.83 183.694V168.859H176.264Z" fill="black"/>
<path d="M159.174 188.03C154.348 188.076 149.584 186.949 145.29 184.746C145.099 184.645 144.938 184.494 144.827 184.308C144.715 184.123 144.656 183.911 144.655 183.695V168.86C144.655 168.544 144.781 168.242 145.004 168.018C145.227 167.795 145.53 167.67 145.845 167.67H176.28C176.595 167.67 176.898 167.795 177.121 168.018C177.345 168.242 177.47 168.544 177.47 168.86V181.208C177.47 181.382 177.431 181.554 177.357 181.711C177.283 181.869 177.175 182.008 177.041 182.12C172.527 185.876 166.021 188.03 159.174 188.03ZM147.02 182.965C150.814 184.772 154.971 185.69 159.174 185.65C165.256 185.65 171.016 183.829 175.074 180.636V170.05H147.02V182.965Z" fill="black"/>
<path d="M94.136 423.578C93.8583 423.577 93.5896 423.479 93.3764 423.301C93.1632 423.123 93.0189 422.877 92.9685 422.603C92.9181 422.33 92.9648 422.048 93.1005 421.806C93.2362 421.564 93.4524 421.377 93.7116 421.277L123.107 410.127L129.208 404.546C129.441 404.333 129.749 404.221 130.064 404.236C130.38 404.25 130.677 404.389 130.89 404.622C131.103 404.855 131.215 405.163 131.2 405.478C131.186 405.793 131.047 406.09 130.814 406.303L124.543 412.039C124.428 412.144 124.293 412.224 124.146 412.273L94.5407 423.502C94.4112 423.551 94.2743 423.576 94.136 423.578Z" fill="black"/>
<path d="M110.956 480.985L94.1364 480.834C93.8207 480.834 93.518 480.709 93.2949 480.486C93.0717 480.262 92.9463 479.96 92.9463 479.644C92.9463 479.329 93.0717 479.026 93.2949 478.803C93.518 478.58 93.8207 478.454 94.1364 478.454L110.587 478.601L131.323 464.508C131.586 464.33 131.908 464.264 132.22 464.324C132.532 464.385 132.807 464.566 132.985 464.829C133.163 465.092 133.229 465.415 133.168 465.727C133.108 466.039 132.926 466.314 132.663 466.491L111.639 480.794C111.436 480.926 111.198 480.992 110.956 480.985Z" fill="black"/>
<path d="M222.376 74.7544C222.374 69.07 220.258 63.5894 216.439 59.3789C212.619 55.1685 207.37 52.5293 201.712 51.9748C200.662 48.7807 198.922 45.8566 196.616 43.4095C194.31 40.9624 191.494 39.0523 188.367 37.8144C186.753 33.6437 183.953 30.0371 180.312 27.4399C176.671 24.8427 172.349 23.3687 167.88 23.1999C163.411 23.0311 158.99 24.175 155.164 26.4903C151.337 28.8055 148.273 32.1907 146.349 36.2278C140.783 36.5015 135.509 38.8043 131.525 42.7011C129.262 41.5113 126.731 40.9257 124.176 41.0012C121.621 41.0767 119.128 41.8107 116.94 43.132C114.752 44.4534 112.942 46.3174 111.686 48.5434C110.43 50.7695 109.77 53.2822 109.77 55.8382C109.77 56.1515 109.77 56.4689 109.802 56.7782C107.554 59.1762 105.849 62.0303 104.803 65.1461C103.757 68.262 103.395 71.5666 103.741 74.835C104.087 78.1034 105.133 81.259 106.808 84.0869C108.483 86.9149 110.747 89.3489 113.447 91.2233C112.781 93.282 112.611 95.4691 112.952 97.6059C113.292 99.7427 114.133 101.769 115.406 103.518C116.679 105.268 118.348 106.692 120.277 107.674C122.205 108.656 124.338 109.167 126.503 109.167C128.667 109.167 130.8 108.656 132.728 107.674C134.657 106.692 136.326 105.268 137.599 103.518C138.872 101.769 139.713 99.7427 140.053 97.6059C140.394 95.4691 140.224 93.282 139.558 91.2233C142.919 88.8836 145.595 85.689 147.309 81.9695H147.504C150.519 81.9736 153.506 81.3798 156.291 80.2224C159.076 79.065 161.604 77.3669 163.728 75.2264C167.476 79.0157 172.431 81.3746 177.736 81.8941C179.016 85.8092 181.33 89.3062 184.432 92.0166C183.651 93.8903 183.296 95.9138 183.392 97.9413C183.488 99.9688 184.033 101.95 184.987 103.741C185.941 105.533 187.281 107.091 188.909 108.302C190.538 109.513 192.416 110.348 194.406 110.746C196.397 111.145 198.451 111.096 200.42 110.605C202.39 110.113 204.226 109.191 205.796 107.905C207.366 106.618 208.631 104.999 209.5 103.165C210.369 101.33 210.82 99.3258 210.82 97.2961C210.818 96.4618 210.741 95.6294 210.59 94.8091C214.168 92.8246 217.148 89.9175 219.221 86.3905C221.294 82.8634 222.383 78.8453 222.376 74.7544Z" fill="black"/>
<path d="M197.087 112.187C194.704 112.186 192.355 111.615 190.239 110.52C188.122 109.426 186.298 107.84 184.921 105.896C183.543 103.952 182.651 101.706 182.319 99.3467C181.988 96.9871 182.227 94.5825 183.016 92.3342C180.251 89.7439 178.136 86.5381 176.843 82.9773C171.952 82.3379 167.375 80.2143 163.728 76.8927C159.444 80.8233 153.872 83.0558 148.059 83.1716C146.374 86.533 143.93 89.4556 140.918 91.7075C141.492 93.9119 141.552 96.2184 141.096 98.4499C140.639 100.681 139.677 102.778 138.283 104.58C136.89 106.382 135.102 107.841 133.057 108.845C131.012 109.848 128.765 110.37 126.487 110.37C124.209 110.37 121.961 109.848 119.916 108.845C117.871 107.841 116.083 106.382 114.69 104.58C113.297 102.778 112.335 100.681 111.878 98.4499C111.421 96.2184 111.482 93.9119 112.055 91.7075C109.379 89.705 107.15 87.1674 105.509 84.2561C103.868 81.3448 102.851 78.1238 102.524 74.7981C102.196 71.4724 102.565 68.1149 103.606 64.9394C104.647 61.764 106.339 58.8401 108.572 56.3541C108.572 56.1756 108.572 56.013 108.572 55.8504C108.571 53.1597 109.248 50.5121 110.539 48.1514C111.83 45.7908 113.694 43.7928 115.96 42.3417C118.227 40.8906 120.821 40.0329 123.506 39.8476C126.19 39.6623 128.878 40.1554 131.322 41.2814C135.265 37.6915 140.288 35.5134 145.603 35.0897C147.635 31.1575 150.707 27.858 154.484 25.5501C158.261 23.2421 162.599 22.0143 167.025 22.0002C171.799 21.979 176.471 23.3869 180.438 26.0427C184.406 28.6984 187.488 32.4806 189.287 36.9024C192.354 38.1855 195.12 40.0916 197.411 42.4999C199.702 44.9081 201.468 47.7659 202.597 50.8922C207.554 51.5379 212.188 53.7104 215.855 57.1083C219.523 60.5062 222.041 64.9611 223.062 69.8549C224.083 74.7487 223.555 79.8388 221.552 84.4191C219.549 88.9994 216.17 92.8428 211.883 95.4162C211.962 96.0345 212.002 96.6572 212.002 97.2805C211.997 101.234 210.424 105.023 207.627 107.818C204.831 110.612 201.04 112.183 197.087 112.187ZM163.728 74.0566C164.044 74.0569 164.346 74.1824 164.569 74.4057C168.126 77.9808 172.816 80.2076 177.835 80.7045C178.066 80.7264 178.286 80.8154 178.467 80.9606C178.648 81.1058 178.783 81.3008 178.854 81.5216C180.071 85.2313 182.263 88.5454 185.202 91.1165C185.389 91.2803 185.521 91.499 185.578 91.7417C185.635 91.9844 185.614 92.2388 185.519 92.4691C184.806 94.1802 184.481 96.0282 184.569 97.8798C184.656 99.7315 185.154 101.541 186.025 103.177C186.896 104.813 188.12 106.236 189.607 107.342C191.095 108.448 192.809 109.211 194.627 109.575C196.445 109.939 198.321 109.895 200.119 109.446C201.918 108.997 203.595 108.155 205.029 106.98C206.463 105.806 207.618 104.327 208.412 102.652C209.206 100.977 209.618 99.1461 209.618 97.2924C209.617 96.53 209.546 95.7693 209.408 95.0196C209.363 94.7751 209.396 94.5227 209.502 94.298C209.608 94.0732 209.782 93.8872 209.999 93.7661C214.055 91.5266 217.287 88.0478 219.223 83.8389C221.159 79.63 221.697 74.9121 220.758 70.3755C219.819 65.839 217.452 61.7221 214.004 58.6274C210.557 55.5327 206.209 53.6227 201.597 53.1769C201.367 53.1543 201.148 53.0649 200.967 52.9198C200.787 52.7746 200.653 52.58 200.581 52.3598C199.594 49.3251 197.948 46.5465 195.76 44.2231C193.572 41.8997 190.897 40.0892 187.927 38.9213C187.776 38.8628 187.639 38.7743 187.524 38.6611C187.409 38.5479 187.318 38.4124 187.256 38.2629C185.695 34.1673 182.922 30.6447 179.308 28.1645C175.693 25.6843 171.409 24.3642 167.025 24.3801C162.926 24.3935 158.914 25.5611 155.448 27.7491C151.982 29.9372 149.203 33.0571 147.428 36.7517C147.336 36.9452 147.192 37.11 147.013 37.2287C146.835 37.3474 146.627 37.4156 146.413 37.426C141.137 37.6906 136.14 39.8744 132.362 43.5661C132.182 43.7426 131.95 43.8572 131.701 43.8936C131.451 43.93 131.196 43.8861 130.973 43.7684C129.02 42.7267 126.84 42.1818 124.626 42.1818C121.006 42.186 117.536 43.6257 114.976 46.1852C112.416 48.7447 110.976 52.2149 110.972 55.8345C110.972 56.0923 110.972 56.37 111.004 56.7032C111.014 56.8653 110.99 57.0279 110.935 57.1807C110.88 57.3335 110.794 57.4733 110.682 57.5917C108.551 59.8646 106.934 62.57 105.943 65.5237C104.951 68.4774 104.607 71.6101 104.935 74.7086C105.263 77.807 106.255 80.7984 107.843 83.4793C109.431 86.1601 111.578 88.4673 114.138 90.2439C114.347 90.389 114.505 90.5976 114.587 90.839C114.669 91.0804 114.671 91.3417 114.594 91.5846C113.985 93.4647 113.83 95.4622 114.141 97.4138C114.452 99.3653 115.22 101.216 116.382 102.814C117.545 104.412 119.069 105.712 120.83 106.609C122.592 107.506 124.54 107.973 126.516 107.973C128.493 107.973 130.441 107.506 132.203 106.609C133.964 105.712 135.488 104.412 136.651 102.814C137.813 101.216 138.581 99.3653 138.892 97.4138C139.203 95.4622 139.048 93.4647 138.439 91.5846C138.361 91.3421 138.363 91.0811 138.444 90.8397C138.526 90.5984 138.682 90.3896 138.891 90.2439C142.07 88.0323 144.602 85.0133 146.226 81.4978C146.325 81.2913 146.479 81.1167 146.672 80.994C146.865 80.8712 147.089 80.8052 147.317 80.8036H147.504C150.363 80.8111 153.196 80.2497 155.836 79.1519C158.477 78.0542 160.872 76.4421 162.883 74.4096C162.994 74.2979 163.126 74.2092 163.271 74.1486C163.416 74.088 163.571 74.0567 163.728 74.0566Z" fill="black"/>
<path d="M221.769 480.984C221.53 480.984 221.296 480.912 221.098 480.778L200.073 466.475C199.943 466.387 199.832 466.274 199.745 466.143C199.658 466.012 199.598 465.866 199.568 465.712C199.538 465.557 199.539 465.399 199.57 465.245C199.601 465.091 199.662 464.945 199.75 464.815C199.838 464.684 199.95 464.573 200.081 464.486C200.212 464.399 200.359 464.339 200.513 464.309C200.667 464.279 200.826 464.28 200.98 464.311C201.134 464.342 201.28 464.404 201.41 464.491L222.138 478.584L238.585 478.438C238.9 478.438 239.203 478.563 239.426 478.786C239.649 479.009 239.775 479.312 239.775 479.628C239.775 479.943 239.649 480.246 239.426 480.469C239.203 480.692 238.9 480.817 238.585 480.817L221.761 480.968L221.769 480.984Z" fill="black"/>
<path d="M143.585 132.802C146.636 126.367 141.84 117.705 132.874 113.456C123.908 109.206 114.166 110.978 111.115 117.414C108.065 123.849 112.86 132.511 121.827 136.761C130.793 141.01 140.535 139.238 143.585 132.802Z" fill="white"/>
<path d="M131.719 140.25C124.095 140.25 115.764 136.034 111.571 129.58C108.965 125.526 108.314 121.282 109.742 117.593C111.091 114.123 114.142 111.612 118.331 110.525C126.927 108.292 138.047 112.822 143.112 120.624C145.738 124.662 146.393 128.922 144.961 132.614C143.612 136.085 140.562 138.596 136.372 139.683C134.852 140.068 133.288 140.259 131.719 140.25ZM123.051 112.318C121.661 112.313 120.276 112.486 118.93 112.833C115.498 113.722 113.027 115.721 111.964 118.458C110.813 121.417 111.389 124.911 113.586 128.291C118.136 135.3 128.09 139.377 135.773 137.382C139.205 136.494 141.676 134.495 142.739 131.758C143.89 128.795 143.315 125.304 141.117 121.925C137.348 116.114 129.875 112.318 123.051 112.318Z" fill="black"/>
<path d="M198.18 135.404C207.146 131.154 211.942 122.493 208.891 116.057C205.84 109.622 196.099 107.849 187.132 112.099C178.166 116.348 173.37 125.01 176.421 131.445C179.472 137.881 189.213 139.653 198.18 135.404Z" fill="white"/>
<path d="M188.272 138.912C186.708 138.92 185.15 138.729 183.634 138.345C179.445 137.258 176.395 134.747 175.046 131.276C173.614 127.584 174.253 123.324 176.891 119.286C181.956 111.484 193.076 106.954 201.676 109.187C205.865 110.274 208.916 112.785 210.261 116.255C211.697 119.948 211.054 124.188 208.416 128.246C204.227 134.7 195.892 138.912 188.272 138.912ZM196.952 110.984C190.132 110.984 182.671 114.776 178.886 120.579C176.692 123.962 176.109 127.453 177.264 130.416C178.327 133.153 180.802 135.152 184.23 136.04C191.914 138.024 201.871 133.958 206.421 126.949C208.618 123.57 209.198 120.075 208.043 117.116C206.98 114.379 204.505 112.38 201.077 111.488C199.729 111.147 198.342 110.977 196.952 110.984Z" fill="black"/>
<path d="M199.483 126.296C199.483 160.075 177.72 181.431 159.932 181.431C144.433 181.431 120.517 160.059 120.517 126.296C120.517 105.71 117.994 87.4999 126.503 76.4175C131.949 69.3134 141.926 65.1367 160 65.1367C174.923 65.1367 184.198 69.0477 189.978 75.7392C199.483 86.7502 199.483 105.298 199.483 126.296Z" fill="white"/>
<path d="M159.932 182.643C151.459 182.643 141.327 176.764 133.496 167.3C124.372 156.262 119.326 141.701 119.326 126.303C119.326 122.364 119.235 118.504 119.144 114.772C118.747 98.7909 118.426 84.9875 125.559 75.6979C131.703 67.6856 142.648 63.9531 160 63.9531C174.384 63.9531 184.488 67.5547 190.878 74.9681C200.673 86.3123 200.673 104.844 200.673 126.303C200.673 141.974 195.912 156.531 187.308 167.288C179.604 176.895 169.37 182.643 159.932 182.643ZM160 66.333C143.449 66.333 133.104 69.768 127.447 77.1457C120.826 85.7689 121.151 99.1836 121.524 114.712C121.615 118.461 121.707 122.336 121.707 126.303C121.707 141.149 126.546 155.171 135.329 165.785C142.72 174.714 152.149 180.263 159.924 180.263C178.069 180.263 198.285 158.102 198.285 126.318C198.285 105.336 198.285 87.2127 189.069 76.5388C183.163 69.657 173.65 66.3251 160 66.3251V66.333Z" fill="black"/>
<path d="M158.424 159.685H154.089C153.773 159.685 153.47 159.559 153.247 159.336C153.024 159.113 152.898 158.81 152.898 158.495C152.898 158.179 153.024 157.877 153.247 157.653C153.47 157.43 153.773 157.305 154.089 157.305H158.424C160.981 157.301 163.51 156.773 165.855 155.753C168.199 154.733 170.309 153.243 172.055 151.375C172.161 151.261 172.289 151.168 172.432 151.103C172.574 151.039 172.727 151.002 172.883 150.997C173.04 150.991 173.195 151.017 173.342 151.071C173.488 151.126 173.622 151.209 173.737 151.315C173.851 151.422 173.943 151.55 174.008 151.692C174.073 151.834 174.109 151.988 174.115 152.144C174.12 152.3 174.095 152.456 174.04 152.602C173.986 152.749 173.903 152.883 173.796 152.997C171.828 155.104 169.448 156.785 166.804 157.935C164.16 159.085 161.308 159.681 158.424 159.685Z" fill="black"/>
<path d="M158.262 146.585C158.005 146.585 157.755 146.502 157.549 146.348C157.343 146.195 157.192 145.978 157.12 145.732C157.047 145.485 157.056 145.222 157.145 144.981C157.234 144.74 157.399 144.535 157.615 144.395L165.68 139.175L158.75 107.562C158.712 107.408 158.706 107.248 158.731 107.091C158.756 106.935 158.812 106.784 158.896 106.65C158.98 106.515 159.09 106.399 159.22 106.307C159.35 106.216 159.497 106.151 159.652 106.117C159.807 106.083 159.967 106.081 160.123 106.11C160.279 106.139 160.428 106.199 160.561 106.286C160.693 106.374 160.807 106.487 160.895 106.619C160.983 106.751 161.044 106.899 161.074 107.055L168.183 139.473C168.235 139.709 168.213 139.956 168.121 140.18C168.029 140.404 167.871 140.595 167.667 140.726L158.908 146.394C158.716 146.519 158.491 146.585 158.262 146.585Z" fill="black"/>
<path d="M189.977 75.7392C179.267 73.6806 170.539 79.7414 156.365 79.7414C142.084 79.7414 142.084 73.5814 130.878 74.7039C129.3 74.8899 127.797 75.4802 126.514 76.4174C131.961 69.3134 141.938 65.1367 160.011 65.1367C174.923 65.1367 184.205 69.0477 189.977 75.7392Z" fill="black"/>
<path d="M189.823 98.8506C189.732 98.8497 189.642 98.839 189.553 98.8189C185.507 97.8828 174.189 95.7449 170.476 97.0618C170.178 97.167 169.851 97.1496 169.566 97.0135C169.281 96.8773 169.062 96.6336 168.957 96.3359C168.851 96.0382 168.869 95.7109 169.005 95.426C169.141 95.1411 169.385 94.9219 169.683 94.8167C174.721 93.0358 188.53 96.1415 190.089 96.4985C190.376 96.5617 190.63 96.729 190.801 96.9684C190.972 97.2077 191.049 97.5019 191.016 97.7943C190.983 98.0867 190.843 98.3565 190.622 98.5516C190.402 98.7467 190.117 98.8532 189.823 98.8506Z" fill="black"/>
<path d="M141.541 122.63C143.176 122.63 144.501 120.881 144.501 118.723C144.501 116.566 143.176 114.816 141.541 114.816C139.907 114.816 138.582 116.566 138.582 118.723C138.582 120.881 139.907 122.63 141.541 122.63Z" fill="black"/>
<path d="M141.545 123.821C139.256 123.821 137.396 121.536 137.396 118.724C137.396 115.912 139.256 113.627 141.545 113.627C143.834 113.627 145.691 115.916 145.691 118.724C145.691 121.532 143.83 123.821 141.545 123.821ZM141.545 116.007C140.585 116.007 139.776 117.252 139.776 118.724C139.776 120.195 140.57 121.441 141.545 121.441C142.521 121.441 143.311 120.199 143.311 118.724C143.311 117.248 142.501 116.007 141.545 116.007Z" fill="black"/>
<path d="M180.746 122.63C182.381 122.63 183.706 120.881 183.706 118.723C183.706 116.566 182.381 114.816 180.746 114.816C179.112 114.816 177.787 116.566 177.787 118.723C177.787 120.881 179.112 122.63 180.746 122.63Z" fill="black"/>
<path d="M180.747 123.821C178.458 123.821 176.597 121.536 176.597 118.724C176.597 115.912 178.458 113.627 180.747 113.627C183.036 113.627 184.896 115.916 184.896 118.724C184.896 121.532 183.036 123.821 180.747 123.821ZM180.747 116.007C179.787 116.007 178.977 117.252 178.977 118.724C178.977 120.195 179.771 121.441 180.747 121.441C181.722 121.441 182.516 120.199 182.516 118.724C182.516 117.248 181.703 116.007 180.747 116.007Z" fill="black"/>
<path d="M141.545 116.007H133.024C132.708 116.007 132.406 115.881 132.183 115.658C131.959 115.435 131.834 115.132 131.834 114.817C131.834 114.501 131.959 114.199 132.183 113.975C132.406 113.752 132.708 113.627 133.024 113.627H141.545C141.861 113.627 142.163 113.752 142.387 113.975C142.61 114.199 142.735 114.501 142.735 114.817C142.735 115.132 142.61 115.435 142.387 115.658C142.163 115.881 141.861 116.007 141.545 116.007Z" fill="black"/>
<path d="M180.747 116.007H172.928C172.612 116.007 172.31 115.881 172.086 115.658C171.863 115.435 171.738 115.132 171.738 114.817C171.738 114.501 171.863 114.199 172.086 113.975C172.31 113.752 172.612 113.627 172.928 113.627H180.747C181.062 113.627 181.365 113.752 181.588 113.975C181.811 114.199 181.937 114.501 181.937 114.817C181.937 115.132 181.811 115.435 181.588 115.658C181.365 115.881 181.062 116.007 180.747 116.007Z" fill="black"/>
<path d="M130.926 98.8522C130.631 98.8548 130.347 98.7483 130.126 98.5532C129.906 98.3581 129.766 98.0883 129.733 97.7959C129.7 97.5035 129.776 97.2093 129.947 96.9699C130.119 96.7306 130.372 96.5632 130.66 96.5001C132.219 96.1431 146.032 93.0334 151.066 94.8183C151.364 94.9235 151.607 95.1427 151.743 95.4276C151.88 95.7125 151.897 96.0398 151.792 96.3375C151.687 96.6352 151.467 96.8789 151.182 97.015C150.898 97.1512 150.57 97.1685 150.272 97.0633C146.563 95.7504 135.246 97.8844 131.195 98.8205C131.107 98.8411 131.016 98.8517 130.926 98.8522Z" fill="black"/>
<path d="M140.411 408.131C140.411 408.131 166.521 412.05 185.523 408.131L188.446 505.81H140.665L140.411 408.131Z" fill="white"/>
<path d="M188.446 507.001H140.664C140.349 507.001 140.046 506.876 139.823 506.653C139.6 506.43 139.474 506.127 139.474 505.811L139.22 408.132C139.218 407.96 139.254 407.789 139.325 407.632C139.395 407.474 139.499 407.334 139.629 407.221C139.76 407.108 139.913 407.024 140.078 406.976C140.244 406.928 140.418 406.916 140.589 406.942C140.847 406.982 166.711 410.782 185.281 406.942C185.451 406.907 185.627 406.91 185.796 406.951C185.966 406.991 186.124 407.068 186.26 407.176C186.397 407.284 186.508 407.42 186.586 407.575C186.664 407.729 186.707 407.899 186.713 408.073L189.636 505.776C189.641 505.935 189.614 506.093 189.556 506.242C189.498 506.39 189.412 506.526 189.301 506.64C189.19 506.754 189.057 506.845 188.91 506.907C188.763 506.969 188.605 507.001 188.446 507.001ZM141.854 504.621H187.216L184.376 409.568C168.052 412.563 147.087 410.211 141.604 409.497L141.854 504.621Z" fill="black"/>
<path d="M162.447 430.447C148.936 430.447 140.549 428.781 140.426 428.757C140.117 428.694 139.846 428.51 139.671 428.247C139.497 427.984 139.435 427.662 139.498 427.353C139.561 427.043 139.745 426.772 140.008 426.598C140.271 426.424 140.593 426.361 140.902 426.424C141.085 426.46 159.547 430.113 185.939 426.424C186.096 426.398 186.257 426.403 186.411 426.44C186.566 426.477 186.712 426.544 186.84 426.638C186.968 426.732 187.077 426.851 187.158 426.988C187.24 427.124 187.293 427.276 187.315 427.433C187.337 427.591 187.327 427.751 187.286 427.905C187.245 428.058 187.174 428.202 187.076 428.328C186.979 428.454 186.857 428.558 186.718 428.636C186.579 428.714 186.427 428.763 186.268 428.781C178.376 429.887 170.416 430.444 162.447 430.447Z" fill="black"/>
<path d="M163.455 424.319C162.52 424.319 161.607 424.042 160.83 423.523C160.053 423.004 159.447 422.266 159.09 421.403C158.732 420.54 158.638 419.59 158.821 418.674C159.003 417.757 159.453 416.915 160.114 416.255C160.775 415.594 161.616 415.144 162.533 414.962C163.449 414.78 164.399 414.873 165.263 415.231C166.126 415.588 166.864 416.194 167.383 416.971C167.902 417.748 168.179 418.661 168.179 419.595C168.177 420.847 167.679 422.048 166.793 422.933C165.908 423.819 164.707 424.317 163.455 424.319ZM163.455 417.251C162.991 417.251 162.538 417.388 162.152 417.646C161.767 417.904 161.466 418.27 161.289 418.698C161.111 419.126 161.065 419.598 161.155 420.053C161.246 420.507 161.469 420.925 161.797 421.253C162.125 421.581 162.542 421.804 162.997 421.894C163.452 421.985 163.923 421.938 164.352 421.761C164.78 421.584 165.146 421.283 165.404 420.898C165.662 420.512 165.799 420.059 165.799 419.595C165.798 418.974 165.551 418.378 165.111 417.939C164.672 417.499 164.076 417.252 163.455 417.251Z" fill="black"/>
<path d="M166.521 495.556H166.494C166.337 495.553 166.183 495.518 166.04 495.455C165.897 495.392 165.768 495.301 165.66 495.188C165.552 495.075 165.468 494.942 165.411 494.796C165.355 494.65 165.328 494.495 165.331 494.339L165.811 472.666L163.11 429.359C163.1 429.203 163.121 429.047 163.172 428.898C163.222 428.75 163.302 428.613 163.405 428.496C163.614 428.259 163.909 428.114 164.225 428.094C164.54 428.074 164.851 428.18 165.088 428.389C165.325 428.598 165.47 428.893 165.49 429.209L168.195 472.586C168.198 472.619 168.198 472.653 168.195 472.686L167.711 494.41C167.7 494.718 167.57 495.01 167.348 495.223C167.126 495.437 166.83 495.557 166.521 495.556Z" fill="black"/>
<path d="M170.282 395.455H170.254C169.939 395.447 169.64 395.315 169.422 395.088C169.204 394.86 169.085 394.556 169.092 394.241C169.115 393.051 169.837 365.115 182.182 348.206C182.369 347.95 182.649 347.78 182.961 347.731C183.273 347.682 183.591 347.76 183.847 347.946C184.102 348.132 184.272 348.412 184.321 348.724C184.37 349.036 184.293 349.355 184.106 349.61C172.206 365.908 171.468 394.011 171.46 394.292C171.453 394.601 171.326 394.895 171.106 395.112C170.886 395.329 170.59 395.452 170.282 395.455Z" fill="black"/>
<path d="M144.382 260.633C144.185 260.633 143.991 260.584 143.818 260.49C143.541 260.341 143.334 260.087 143.243 259.785C143.152 259.483 143.185 259.158 143.334 258.88C145.48 254.914 143.275 248.143 143.255 248.075C143.202 247.926 143.179 247.768 143.188 247.61C143.197 247.452 143.237 247.297 143.306 247.155C143.376 247.013 143.473 246.886 143.591 246.782C143.71 246.677 143.849 246.598 143.999 246.548C144.149 246.497 144.308 246.478 144.466 246.49C144.623 246.502 144.777 246.545 144.918 246.617C145.059 246.689 145.184 246.788 145.286 246.909C145.388 247.03 145.465 247.171 145.512 247.322C145.615 247.635 148.067 255.12 145.429 260.014C145.326 260.202 145.175 260.359 144.99 260.468C144.806 260.577 144.596 260.634 144.382 260.633Z" fill="black"/>
<path d="M145.829 202.968C145.514 202.968 145.211 202.842 144.988 202.619C144.765 202.396 144.639 202.093 144.639 201.778V195.602C144.639 195.286 144.765 194.984 144.988 194.761C145.211 194.537 145.514 194.412 145.829 194.412C146.145 194.412 146.448 194.537 146.671 194.761C146.894 194.984 147.019 195.286 147.019 195.602V201.778C147.019 202.093 146.894 202.396 146.671 202.619C146.448 202.842 146.145 202.968 145.829 202.968Z" fill="black"/>
<path d="M176.264 201.287C175.948 201.287 175.645 201.161 175.422 200.938C175.199 200.715 175.074 200.412 175.074 200.097V195.17C175.074 194.855 175.199 194.552 175.422 194.329C175.645 194.106 175.948 193.98 176.264 193.98C176.579 193.98 176.882 194.106 177.105 194.329C177.329 194.552 177.454 194.855 177.454 195.17V200.097C177.454 200.412 177.329 200.715 177.105 200.938C176.882 201.161 176.579 201.287 176.264 201.287Z" fill="black"/>
<path d="M235.205 424.318C235.07 424.318 234.936 424.295 234.808 424.251L200.296 412.284C200.148 412.23 200.013 412.147 199.899 412.038L196.599 409.019L196.579 408.999L193.627 406.302C193.394 406.089 193.256 405.792 193.241 405.477C193.227 405.162 193.339 404.853 193.552 404.62C193.765 404.387 194.062 404.249 194.377 404.234C194.693 404.22 195.001 404.332 195.234 404.545L196.694 405.882L197.598 401.999C197.641 401.818 197.724 401.65 197.843 401.508C197.962 401.366 198.112 401.253 198.282 401.179C198.452 401.105 198.637 401.072 198.822 401.082C199.007 401.092 199.187 401.145 199.348 401.237L235.792 422.093C236.021 422.223 236.201 422.425 236.303 422.667C236.404 422.91 236.423 423.179 236.356 423.434C236.288 423.688 236.138 423.913 235.929 424.073C235.72 424.233 235.464 424.319 235.201 424.318H235.205ZM201.327 410.114L223.542 417.821L199.554 404.097L198.709 407.722L201.327 410.114Z" fill="black"/>
</g>
</g>
<defs>
<clipPath id="clip0">
<rect width="217" height="485" fill="white" transform="translate(50 22)"/>
</clipPath>
</defs>
</svg>
