<svg width="191" height="36" viewBox="0 0 191 36" fill="none" xmlns="http://www.w3.org/2000/svg">
<path d="M35.8305 26.4682C35.533 26.4682 35.3842 26.4682 35.2704 26.4412C34.8126 26.3327 34.4924 25.9197 34.5013 25.4492C34.5035 25.3324 34.5405 25.1883 34.6146 24.9001L37.7141 12.8466C38.0852 11.4033 38.2708 10.6817 38.8118 10.2622C39.3528 9.84277 40.0979 9.84277 41.5881 9.84277H42.8664C44.3566 9.84277 45.1017 9.84277 45.6427 10.2622C46.1837 10.6817 46.3693 11.4033 46.7404 12.8466L49.8399 24.9001C49.914 25.1883 49.951 25.3324 49.9532 25.4492C49.9621 25.9197 49.6419 26.3327 49.1841 26.4412C49.0703 26.4682 48.9215 26.4682 48.624 26.4682C48.248 26.4682 48.0599 26.4682 47.8937 26.4399C47.2357 26.3282 46.6768 25.8956 46.4037 25.2867C46.3347 25.1328 46.2876 24.9508 46.1933 24.5867L43.4897 14.145C43.4336 13.9283 43.4055 13.8199 43.3615 13.7296C43.2251 13.45 42.9664 13.2497 42.6615 13.1878C42.5631 13.1679 42.4511 13.1679 42.2273 13.1679C42.0034 13.1679 41.8914 13.1679 41.793 13.1878C41.4881 13.2497 41.2294 13.45 41.093 13.7296C41.049 13.8199 41.021 13.9283 40.9648 14.145L38.2612 24.5867C38.1669 24.9508 38.1198 25.1328 38.0508 25.2867C37.7777 25.8956 37.2188 26.3282 36.5608 26.4399C36.3946 26.4682 36.2065 26.4682 35.8305 26.4682Z" fill="#2E2F33"/>
<path d="M52.6554 25.0669C51.5946 23.8794 51.0641 22.3277 51.0641 20.4118C51.0641 18.4959 51.5946 16.9521 52.6554 15.7804C53.7321 14.5929 55.0622 13.9991 56.6455 13.9991C57.7064 13.9991 58.6643 14.3158 59.5194 14.9492C59.8835 15.25 60.1923 15.5667 60.4456 15.8992H60.5644C60.5644 15.0466 61.2556 14.3554 62.1082 14.3554H62.2269C63.1451 14.3554 63.8895 15.0997 63.8895 16.0179V24.8056C63.8895 25.7238 63.1451 26.4682 62.2269 26.4682H62.1082C61.2556 26.4682 60.5644 25.777 60.5644 24.9244H60.4456C60.1923 25.2569 59.8835 25.5736 59.5194 25.8744C58.6643 26.5078 57.7064 26.8244 56.6455 26.8244C55.0622 26.8244 53.7321 26.2386 52.6554 25.0669ZM55.3393 17.7992C54.7851 18.4326 54.508 19.3034 54.508 20.4118C54.508 21.5201 54.7851 22.391 55.3393 23.0244C55.8934 23.6577 56.6059 23.9744 57.4768 23.9744C58.3952 23.9744 59.1393 23.6656 59.7094 23.0481C60.2794 22.4148 60.5644 21.536 60.5644 20.4118C60.5644 19.2876 60.2794 18.4167 59.7094 17.7992C59.1393 17.1659 58.3952 16.8492 57.4768 16.8492C56.6059 16.8492 55.8934 17.1659 55.3393 17.7992Z" fill="#2E2F33"/>
<path d="M66.027 19.5805C66.027 13.0887 68.7188 9.84277 74.1022 9.84277H76.121C76.908 9.84277 77.5461 10.4808 77.5461 11.2678C77.5461 12.0548 76.908 12.6928 76.121 12.6928H74.4585C72.8276 12.6928 71.5847 13.0729 70.7296 13.8329C69.8746 14.5771 69.4154 15.6221 69.3521 16.968H69.4709C69.6609 16.6988 69.9459 16.4217 70.3259 16.1367C71.1334 15.5825 72.0755 15.3054 73.1522 15.3054C74.7197 15.3054 76.0181 15.8358 77.0473 16.8967C78.0923 17.9417 78.6148 19.2718 78.6148 20.8868C78.6148 22.581 78.029 23.9981 76.8573 25.1382C75.7014 26.2624 74.1893 26.8244 72.3209 26.8244C70.5 26.8244 68.9958 26.1673 67.8083 24.8531C66.6208 23.5389 66.027 21.7814 66.027 19.5805ZM69.4709 20.8868C69.4709 21.821 69.7321 22.5731 70.2546 23.1431C70.7771 23.6973 71.4659 23.9744 72.3209 23.9744C73.1759 23.9744 73.8647 23.6973 74.3872 23.1431C74.9097 22.5731 75.171 21.821 75.171 20.8868C75.171 19.9843 74.9097 19.2638 74.3872 18.7255C73.8647 18.1871 73.1759 17.918 72.3209 17.918C71.4659 17.918 70.7771 18.1871 70.2546 18.7255C69.7321 19.2638 69.4709 19.9843 69.4709 20.8868Z" fill="#2E2F33"/>
<path d="M81.6987 24.9719C80.432 23.721 79.7986 22.201 79.7986 20.4118C79.7986 18.6226 80.432 17.1105 81.6987 15.8754C82.9654 14.6246 84.5488 13.9991 86.4488 13.9991C88.333 13.9991 89.9085 14.6246 91.1752 15.8754C92.4577 17.1105 93.099 18.6226 93.099 20.4118C93.099 22.201 92.4577 23.721 91.1752 24.9719C89.9085 26.2069 88.333 26.8244 86.4488 26.8244C84.5488 26.8244 82.9654 26.2069 81.6987 24.9719ZM84.1688 17.8467C83.5512 18.5117 83.2425 19.3668 83.2425 20.4118C83.2425 21.4568 83.5512 22.3118 84.1688 22.9769C84.7863 23.6419 85.5463 23.9744 86.4488 23.9744C87.3513 23.9744 88.1114 23.6419 88.7289 22.9769C89.3464 22.3118 89.6551 21.4568 89.6551 20.4118C89.6551 19.3668 89.3464 18.5117 88.7289 17.8467C88.1114 17.1817 87.3513 16.8492 86.4488 16.8492C85.5463 16.8492 84.7863 17.1817 84.1688 17.8467Z" fill="#2E2F33"/>
<path d="M96.6699 30.9808C95.7517 30.9808 95.0074 30.2365 95.0074 29.3183V16.0179C95.0074 15.0997 95.7517 14.3554 96.6699 14.3554H96.7887C97.6413 14.3554 98.3325 15.0466 98.3325 15.8992H98.4512C98.7046 15.5667 99.0133 15.25 99.3775 14.9492C100.233 14.3158 101.19 13.9991 102.251 13.9991C103.835 13.9991 105.157 14.5929 106.218 15.7804C107.294 16.9521 107.833 18.4959 107.833 20.4118C107.833 22.3277 107.294 23.8794 106.218 25.0669C105.157 26.2386 103.835 26.8244 102.251 26.8244C101.19 26.8244 100.233 26.5078 99.3775 25.8744C99.0133 25.5736 98.7046 25.2569 98.4512 24.9244H98.3325V29.3183C98.3325 30.2365 97.5881 30.9808 96.6699 30.9808ZM99.1875 17.7992C98.6175 18.4167 98.3325 19.2876 98.3325 20.4118C98.3325 21.536 98.6175 22.4148 99.1875 23.0481C99.7575 23.6656 100.502 23.9744 101.42 23.9744C102.291 23.9744 103.003 23.6577 103.558 23.0244C104.112 22.391 104.389 21.5201 104.389 20.4118C104.389 19.3034 104.112 18.4326 103.558 17.7992C103.003 17.1659 102.291 16.8492 101.42 16.8492C100.502 16.8492 99.7575 17.1659 99.1875 17.7992Z" fill="#2E2F33"/>
<path d="M110.849 25.0669C109.788 23.8794 109.258 22.3277 109.258 20.4118C109.258 18.4959 109.788 16.9521 110.849 15.7804C111.926 14.5929 113.256 13.9991 114.839 13.9991C115.9 13.9991 116.858 14.3158 117.713 14.9492C118.077 15.25 118.386 15.5667 118.639 15.8992H118.758C118.758 15.0466 119.449 14.3554 120.302 14.3554H120.421C121.339 14.3554 122.083 15.0997 122.083 16.0179V24.8056C122.083 25.7238 121.339 26.4682 120.421 26.4682H120.302C119.449 26.4682 118.758 25.777 118.758 24.9244H118.639C118.386 25.2569 118.077 25.5736 117.713 25.8744C116.858 26.5078 115.9 26.8244 114.839 26.8244C113.256 26.8244 111.926 26.2386 110.849 25.0669ZM113.533 17.7992C112.979 18.4326 112.702 19.3034 112.702 20.4118C112.702 21.5201 112.979 22.391 113.533 23.0244C114.087 23.6577 114.8 23.9744 115.67 23.9744C116.589 23.9744 117.333 23.6656 117.903 23.0481C118.473 22.4148 118.758 21.536 118.758 20.4118C118.758 19.2876 118.473 18.4167 117.903 17.7992C117.333 17.1659 116.589 16.8492 115.67 16.8492C114.8 16.8492 114.087 17.1659 113.533 17.7992Z" fill="#2E2F33"/>
<path d="M124.933 17.2055C124.146 17.2055 123.508 16.5674 123.508 15.7804C123.508 14.9934 124.146 14.3554 124.933 14.3554H133.483C134.27 14.3554 134.908 14.9934 134.908 15.7804C134.908 16.5674 134.27 17.2055 133.483 17.2055H132.217C131.895 17.2055 131.734 17.2055 131.602 17.2421C131.265 17.3361 131.001 17.5997 130.907 17.9371C130.871 18.0688 130.871 18.2296 130.871 18.5513V24.8056C130.871 25.7238 130.126 26.4682 129.208 26.4682C128.29 26.4682 127.546 25.7238 127.546 24.8056V18.5513C127.546 18.2296 127.546 18.0688 127.509 17.9371C127.415 17.5997 127.151 17.3361 126.814 17.2421C126.682 17.2055 126.522 17.2055 126.2 17.2055H124.933Z" fill="#2E2F33"/>
<path d="M137.527 24.9719C136.26 23.721 135.626 22.201 135.626 20.4118C135.626 18.6226 136.26 17.1105 137.527 15.8754C138.793 14.6246 140.377 13.9991 142.277 13.9991C144.161 13.9991 145.736 14.6246 147.003 15.8754C148.286 17.1105 148.927 18.6226 148.927 20.4118C148.927 22.201 148.286 23.721 147.003 24.9719C145.736 26.2069 144.161 26.8244 142.277 26.8244C140.377 26.8244 138.793 26.2069 137.527 24.9719ZM139.997 17.8467C139.379 18.5117 139.07 19.3668 139.07 20.4118C139.07 21.4568 139.379 22.3118 139.997 22.9769C140.614 23.6419 141.374 23.9744 142.277 23.9744C143.179 23.9744 143.939 23.6419 144.557 22.9769C145.174 22.3118 145.483 21.4568 145.483 20.4118C145.483 19.3668 145.174 18.5117 144.557 17.8467C143.939 17.1817 143.179 16.8492 142.277 16.8492C141.374 16.8492 140.614 17.1817 139.997 17.8467Z" fill="#2E2F33"/>
<path d="M152.498 30.9808C151.58 30.9808 150.835 30.2365 150.835 29.3183V16.0179C150.835 15.0997 151.58 14.3554 152.498 14.3554H152.616C153.469 14.3554 154.16 15.0466 154.16 15.8992H154.279C154.532 15.5667 154.841 15.25 155.205 14.9492C156.06 14.3158 157.018 13.9991 158.079 13.9991C159.662 13.9991 160.985 14.5929 162.045 15.7804C163.122 16.9521 163.661 18.4959 163.661 20.4118C163.661 22.3277 163.122 23.8794 162.045 25.0669C160.985 26.2386 159.662 26.8244 158.079 26.8244C157.018 26.8244 156.06 26.5078 155.205 25.8744C154.841 25.5736 154.532 25.2569 154.279 24.9244H154.16V29.3183C154.16 30.2365 153.416 30.9808 152.498 30.9808ZM155.015 17.7992C154.445 18.4167 154.16 19.2876 154.16 20.4118C154.16 21.536 154.445 22.4148 155.015 23.0481C155.585 23.6656 156.329 23.9744 157.248 23.9744C158.119 23.9744 158.831 23.6577 159.385 23.0244C159.94 22.391 160.217 21.5201 160.217 20.4118C160.217 19.3034 159.94 18.4326 159.385 17.7992C158.831 17.1659 158.119 16.8492 157.248 16.8492C156.329 16.8492 155.585 17.1659 155.015 17.7992Z" fill="#2E2F33"/>
<path d="M167.996 26.4682C167.702 26.4682 167.555 26.4682 167.431 26.4527C166.523 26.3391 165.808 25.6242 165.695 24.7165C165.679 24.5928 165.679 24.4456 165.679 24.1512V16.0179C165.679 15.0997 166.424 14.3554 167.342 14.3554C168.26 14.3554 169.004 15.0997 169.004 16.0179V19.5805L168.886 21.7181H169.123L173.305 15.3944C173.396 15.2561 173.442 15.187 173.49 15.1253C173.836 14.6825 174.351 14.4054 174.911 14.3615C174.989 14.3554 175.072 14.3554 175.238 14.3554C175.532 14.3554 175.679 14.3554 175.803 14.3709C176.711 14.4844 177.426 15.1994 177.539 16.1071C177.555 16.2307 177.555 16.378 177.555 16.6724V24.8056C177.555 25.7238 176.81 26.4682 175.892 26.4682C174.974 26.4682 174.23 25.7238 174.23 24.8056V21.2431L174.348 19.1055H174.111L169.929 25.4292C169.838 25.5675 169.792 25.6366 169.744 25.6983C169.398 26.1411 168.883 26.4182 168.323 26.4621C168.245 26.4682 168.162 26.4682 167.996 26.4682Z" fill="#2E2F33"/>
<path d="M182.299 26.4682C181.086 26.4682 180.324 25.1597 180.923 24.1049L182.076 22.0743C181.68 21.8843 181.323 21.631 181.007 21.3143C180.294 20.6018 179.938 19.6676 179.938 18.5117C179.938 17.2925 180.366 16.295 181.221 15.5192C182.091 14.7433 183.287 14.3554 184.807 14.3554H186.863C188.749 14.3554 189.692 14.3554 190.278 14.9412C190.863 15.527 190.863 16.4698 190.863 18.3554V24.8056C190.863 25.7238 190.119 26.4682 189.201 26.4682C188.283 26.4682 187.538 25.7238 187.538 24.8056V24.014C187.538 23.8029 187.538 23.6974 187.522 23.6094C187.448 23.1985 187.127 22.8768 186.716 22.8027C186.628 22.7868 186.522 22.7868 186.311 22.7868H186.062C185.782 22.7868 185.641 22.7868 185.515 22.8206C185.329 22.8701 185.161 22.9723 185.032 23.1149C184.944 23.2118 184.879 23.3365 184.751 23.5858L183.705 25.6116C183.434 26.1377 182.891 26.4682 182.299 26.4682ZM183.382 18.5117C183.382 19.0026 183.532 19.3826 183.833 19.6518C184.134 19.9209 184.569 20.0555 185.139 20.0555H187.538V17.2055H185.139C184.585 17.2055 184.15 17.3321 183.833 17.5855C183.532 17.823 183.382 18.1317 183.382 18.5117Z" fill="#2E2F33"/>
<path fill-rule="evenodd" clip-rule="evenodd" d="M10.8167 22.7111L10.2723 32.2562L25.6984 28.5041L20.7622 20.2271C18.2356 21.2196 15.568 21.9656 12.7836 22.4315C12.1268 22.5415 11.471 22.6345 10.8167 22.7111Z" fill="url(#paint0_radial)"/>
<path fill-rule="evenodd" clip-rule="evenodd" d="M14.1273 34.3797L18.4286 33.2673L18.49 33.2514L18.8578 33.1563L18.9192 33.1404L23.2204 32.028L23.2205 32.028L28.2055 30.7388C29.0397 30.5231 29.4466 29.5787 29.0306 28.8242L26.5443 24.3153L24.3989 20.4247L24.3683 20.3692L18.0593 8.92791C17.9139 8.66408 17.6081 8.53232 17.3164 8.60776L7.93676 11.0335C7.64507 11.1089 7.44154 11.3724 7.4422 11.6737L7.4711 24.7392L7.47124 24.8025L7.48107 29.2453L7.49246 34.3943C7.49436 35.256 8.30813 35.8846 9.14231 35.6689L14.1273 34.3797ZM11.0767 13.9757L15.9813 12.698L24.4234 27.9709L11.1082 31.4108L11.0767 13.9757Z" fill="#2E2F33"/>
<path d="M6.15543 5.8727C5.90455 4.90262 6.48758 3.91283 7.45766 3.66195L14.1643 1.9275C15.1344 1.67662 16.1241 2.25965 16.375 3.22974C16.6259 4.19982 16.0429 5.18961 15.0728 5.44049L8.36618 7.17494C7.3961 7.42582 6.40631 6.84279 6.15543 5.8727Z" fill="#2E2F33"/>
<defs>
<radialGradient id="paint0_radial" cx="0" cy="0" r="1" gradientUnits="userSpaceOnUse" gradientTransform="translate(16.0292 21.7212) rotate(74.6737) scale(8.12377 12.7662)">
<stop stop-color="#FFC226"/>
<stop offset="0.2375" stop-color="#F29E8D"/>
<stop offset="0.497917" stop-color="#CB44F8"/>
<stop offset="0.753125" stop-color="#796DFF"/>
<stop offset="1" stop-color="#2693FF"/>
</radialGradient>
</defs>
</svg>
