<svg width="307" height="604" viewBox="0 0 307 604" fill="none" xmlns="http://www.w3.org/2000/svg">
<path fill-rule="evenodd" clip-rule="evenodd" d="M227.516 585.111C157.048 572.146 102 601.346 27.7392 557.39C-20.2578 502.9 10.7269 421.323 10.5716 348.709C10.42 277.846 -18.1756 199.791 26.8571 145.077C70.8609 91.6125 150.811 95.7294 215.694 71.5428C282.149 46.7698 341.243 -9.92312 411.189 1.80666C483.575 13.9456 543.765 69.8382 581.375 132.867C616.679 192.032 616.871 264.254 608.61 332.656C601.301 393.178 571.18 445.471 537.486 496.276C503.179 548.004 470.182 569.01 412.605 592.199C353.897 615.842 289.762 596.563 227.516 585.111Z" fill="#F0F2FA"/>
</svg>
