<svg width="224" height="691" viewBox="0 0 224 691" fill="none" xmlns="http://www.w3.org/2000/svg">
<path fill-rule="evenodd" clip-rule="evenodd" d="M-92.1128 1.65724C-24.8352 7.14435 31.9162 46.727 85.9799 87.1435C139.3 127.004 196.7 168.439 216.151 232.106C235.456 295.296 212.262 361.776 188.748 423.524C166.309 482.448 130.964 532.918 85.1163 576.202C32.9624 625.439 -20.8668 680.411 -92.1128 688.675C-166.942 697.355 -243.507 668.615 -301.963 621.101C-358.635 575.038 -394.485 506.267 -405.375 434.052C-415.265 368.474 -377.544 309.238 -358.58 245.687C-338.983 180.014 -343.183 102.55 -292.641 56.2634C-240.27 8.30185 -162.892 -4.1155 -92.1128 1.65724Z" fill="#F0F2FA"/>
</svg>
