<svg width="1050" height="920" viewBox="0 0 1050 920" fill="none" xmlns="http://www.w3.org/2000/svg">
<mask id="mask0" mask-type="alpha" maskUnits="userSpaceOnUse" x="0" y="0" width="1050" height="920">
<path d="M57.6395 368.448C74.5768 236.219 24.597 13.4525 0 0H1050V920C703.084 701.927 400.131 960.357 149.751 788.963C-20.4264 672.47 36.901 530.352 57.6395 368.448Z" fill="#0B71FF"/>
</mask>
<g mask="url(#mask0)">
<path d="M1050 0H2V917H1050V0Z" fill="#F0F2FA"/>
<path d="M58.1828 564.392L37.4872 524.533L37.8081 505.806H40.1076V499.226H18.5029V505.806H21.551L21.1232 524.533L0.427614 564.392C-1.55103 568.245 1.22977 572.792 5.56141 572.792H53.1025C57.3806 572.792 60.1614 568.245 58.1828 564.392Z" fill="#E1E4F5"/>
<path d="M187.383 316.352H165.404V412.336H187.383V316.352Z" fill="#E1E4F5"/>
<path d="M1022.05 636.996H1000.07V732.981H1022.05V636.996Z" fill="#E1E4F5"/>
<path d="M165.458 332.296H143.479V412.337H165.458V332.296Z" fill="#E1E4F5"/>
<path d="M143.478 337.967H121.499V412.336H143.478V337.967Z" fill="#E1E4F5"/>
<path d="M537.23 363.702C527.176 364.398 518.727 361.562 511.775 355.195C504.876 348.829 501.4 340.482 501.4 330.102C501.4 319.937 504.876 311.109 511.882 303.672C518.834 296.235 527.551 292.169 538.032 291.42C550.385 290.564 560.118 294.79 567.177 304.046L553.113 315.924C548.835 310.895 543.701 308.541 537.818 308.969C533.005 309.29 529.048 311.376 525.946 315.175C522.845 318.974 521.294 323.468 521.294 328.711C521.294 334.008 522.845 338.288 525.946 341.606C529.048 344.923 533.005 346.421 537.818 346.1C541.187 345.886 544.075 344.976 546.428 343.371C548.835 341.766 551.134 339.519 553.487 336.576L567.979 345.886C564.343 351.076 560.118 355.249 555.305 358.352C550.439 361.402 544.449 363.167 537.23 363.702Z" fill="#E1E4F5"/>
<path d="M608.087 357.336V343.853L574.45 346.207L571.295 332.831L607.285 287.461L626.697 286.123V328.177L635.521 327.534V341.927L626.697 342.569V356.052L608.087 357.336ZM591.563 330.691L608.141 329.514V309.557L591.563 330.691Z" fill="#E1E4F5"/>
<path d="M644.504 354.767V285.373L663.756 284.036V309.985L688.462 308.273V282.27L707.714 280.933V350.38L688.462 351.717V325.34L663.756 327.052V353.429L644.504 354.767Z" fill="#E1E4F5"/>
<path d="M729.961 348.829V296.824L718.25 300.301L714.56 285.695L734.881 278.526L748.838 277.562V347.491L729.961 348.829Z" fill="#E1E4F5"/>
<path d="M815.097 333.794C809.161 341.177 801.406 345.244 791.727 345.886C782.101 346.581 774.347 343.639 768.465 337.165C762.636 330.691 759.694 322.291 759.694 312.018C759.694 301.906 762.689 293.132 768.625 285.748C774.561 278.365 782.315 274.298 791.941 273.656C801.567 272.961 809.321 275.904 815.204 282.431C821.033 288.958 823.974 297.305 823.974 307.524C823.974 317.636 820.979 326.411 815.097 333.794ZM782.636 324.163C784.989 327.534 788.144 329.086 791.941 328.818C795.791 328.551 798.84 326.571 801.139 322.879C803.439 319.188 804.615 314.533 804.615 308.915C804.615 303.351 803.385 298.856 800.979 295.486C798.572 292.061 795.47 290.51 791.727 290.777C787.877 291.045 784.829 293.025 782.529 296.663C780.23 300.354 779.053 305.009 779.053 310.681C779.053 316.298 780.23 320.793 782.636 324.163Z" fill="#E1E4F5"/>
<path d="M892.638 615.06H257.759V209.453H892.638V615.06ZM282.893 589.914H867.504V234.6H282.893V589.914Z" fill="#E1E4F5"/>
<path d="M18.7023 233.582H2V883.913H18.7023V233.582Z" fill="#E1E4F5"/>
<path d="M224.817 233.582H208.114V883.913H224.817V233.582Z" fill="#E1E4F5"/>
<path d="M221.524 732.98H6.01074V762.835H221.524V732.98Z" fill="#E1E4F5"/>
<path d="M221.524 572.686H6.01074V602.54H221.524V572.686Z" fill="#E1E4F5"/>
<path d="M221.524 412.336H6.01074V442.191H221.524V412.336Z" fill="#E1E4F5"/>
<path d="M221.524 252.041H6.01074V281.896H221.524V252.041Z" fill="#E1E4F5"/>
<path d="M991.572 233.583H961.731V883.914H991.572V233.583Z" fill="#E1E4F5"/>
<path d="M1050 733H969V763H1050V733Z" fill="#E1E4F5"/>
<path d="M1050 573H969V603H1050V573Z" fill="#E1E4F5"/>
<path d="M1050 412H969V442H1050V412Z" fill="#E1E4F5"/>
<path d="M1050 252H969V282H1050V252Z" fill="#E1E4F5"/>
<path d="M1050 678H1022V733H1050V678Z" fill="#E1E4F5"/>
<path d="M513.861 475.524L511.776 505.165L473.379 521.002L435.892 504.897L431.507 477.343C438.298 475.47 446.053 473.812 454.716 472.635V436.413H495.733V472.046C502.417 472.849 508.46 474.079 513.861 475.524Z" fill="white"/>
<path d="M473.378 522.606C473.164 522.606 472.951 522.553 472.737 522.499L435.249 506.395C434.768 506.181 434.394 505.699 434.287 505.164L429.902 477.61C429.795 476.808 430.276 476.005 431.078 475.791C438.244 473.811 445.677 472.313 453.057 471.243V436.413C453.057 435.503 453.752 434.808 454.661 434.808H495.678C496.587 434.808 497.283 435.503 497.283 436.413V470.655C503.058 471.404 508.78 472.527 514.235 473.972C514.983 474.186 515.465 474.881 515.411 475.631L513.379 505.271C513.326 505.86 512.951 506.395 512.417 506.662L474.02 522.499C473.806 522.553 473.592 522.606 473.378 522.606ZM437.335 503.773L473.378 519.289L510.224 504.094L512.149 476.754C506.801 475.363 501.186 474.346 495.518 473.651C494.716 473.544 494.127 472.848 494.127 472.046V438.018H456.319V472.634C456.319 473.437 455.731 474.132 454.929 474.239C447.656 475.203 440.383 476.647 433.324 478.52L437.335 503.773Z" fill="#2E2F33"/>
<path d="M424.927 475.523L446.96 584.456L447.762 891.082L348.509 890.494L376.638 713.987" fill="white"/>
<path d="M447.762 892.687C447.762 892.687 447.709 892.687 447.762 892.687L348.509 892.099C348.028 892.099 347.6 891.885 347.279 891.51C346.958 891.136 346.851 890.708 346.905 890.226L375.034 713.773C375.194 712.917 375.996 712.328 376.852 712.435C377.707 712.596 378.349 713.398 378.189 714.254L350.381 888.889L446.104 889.477L445.302 584.616L423.377 475.844C423.216 474.988 423.751 474.132 424.607 473.972C425.462 473.811 426.318 474.346 426.478 475.202L448.511 584.135C448.511 584.242 448.564 584.349 448.564 584.456L449.367 891.082C449.367 891.51 449.206 891.938 448.885 892.206C448.564 892.527 448.19 892.687 447.762 892.687Z" fill="#2E2F33"/>
<path d="M594.77 797.025L609.53 891.083H512.148L502.95 582.958L523.753 475.203L564.021 479.055C564.288 479.055 564.556 479.109 564.823 479.162C573.005 480.286 579.636 486.385 581.775 494.357L609.37 596.869C617.445 626.831 618.621 658.184 612.899 688.627L600.492 800.823L575.198 779.529L523.806 749.888L536.694 663.374L528.726 616.933" fill="white"/>
<path d="M609.53 892.688H512.148C511.292 892.688 510.544 891.992 510.544 891.136L501.346 583.011C501.346 582.904 501.346 582.797 501.399 582.637L522.202 474.882C522.362 474.079 523.111 473.491 523.913 473.598L564.181 477.45C564.449 477.503 564.77 477.503 565.037 477.557C573.807 478.734 580.973 485.154 583.326 493.929L610.92 596.441C618.995 626.403 620.225 658.344 614.503 688.894L602.097 801.037C602.043 801.625 601.669 802.107 601.081 802.374C600.546 802.588 599.904 802.481 599.476 802.107L596.856 799.913L611.134 890.869C611.188 891.35 611.081 891.778 610.76 892.153C610.439 892.474 610.011 892.688 609.53 892.688ZM513.699 889.478H607.658L593.219 797.292C593.219 797.131 593.219 796.971 593.219 796.81L574.289 780.92L523.004 751.332C522.416 751.011 522.095 750.369 522.202 749.727L535.036 663.48L527.122 617.307C526.961 616.451 527.549 615.595 528.405 615.434C529.261 615.274 530.116 615.862 530.277 616.719L538.245 663.159C538.298 663.32 538.298 663.48 538.245 663.694L525.517 749.139L575.946 778.244C576.053 778.298 576.107 778.352 576.16 778.405L599.155 797.773L611.241 688.573C611.241 688.52 611.241 688.52 611.241 688.466C616.856 658.397 615.68 626.938 607.712 597.404L580.224 494.731C578.192 487.241 572.043 481.73 564.609 480.713C564.342 480.66 564.128 480.66 563.86 480.606L525.036 476.915L504.501 583.065L513.699 889.478Z" fill="#2E2F33"/>
<path d="M447.014 618.806L447.442 790.658H508.994L504.021 621.374C503.272 595.8 505.357 570.279 510.17 545.186L523.7 475.203L507.015 473.384C507.015 473.384 498.085 504.042 473.218 504.042C448.351 504.042 444.608 473.277 444.608 473.277L424.768 475.524L440.009 550.803C444.661 573.168 446.961 595.96 447.014 618.806Z" fill="#006BFF"/>
<path d="M509.045 792.263H447.493C446.584 792.263 445.889 791.567 445.889 790.658L445.461 618.805C445.408 596.12 443.108 573.328 438.616 551.124L423.375 475.845C423.268 475.417 423.375 474.935 423.642 474.561C423.91 474.186 424.338 473.972 424.765 473.919L444.605 471.672C445.461 471.565 446.263 472.207 446.37 473.063C446.37 473.116 447.333 480.607 451.237 487.937C456.317 497.514 463.75 502.383 473.376 502.383C496.692 502.383 505.516 473.17 505.623 472.902C505.837 472.153 506.585 471.672 507.334 471.779L524.019 473.598C524.874 473.705 525.516 474.454 525.463 475.364C525.463 475.524 525.409 475.631 525.356 475.792L511.879 545.506C507.067 570.439 504.981 595.96 505.73 621.374L510.703 790.658C510.703 791.086 510.543 791.514 510.275 791.835C510.008 792.156 509.473 792.263 509.045 792.263ZM449.097 789.052H507.441L502.521 621.427C501.772 595.799 503.858 570.064 508.724 544.864L521.933 476.594L508.35 475.096C507.494 477.664 505.141 483.603 500.97 489.595C493.697 500.082 484.178 505.593 473.43 505.593C462.627 505.593 453.964 499.975 448.402 489.381C445.301 483.55 444.017 477.718 443.482 475.043L426.905 476.915L441.771 550.482C446.317 572.9 448.616 595.906 448.723 618.805L449.097 789.052Z" fill="#2E2F33"/>
<path d="M424.929 475.523L391.185 480.713C377.334 482.853 367.976 487.508 363.911 500.937L328.884 638.227C326.156 648.82 326.317 659.895 329.312 670.435C336.157 694.405 356.745 711.9 381.452 714.79L452.737 723.083L481.4 635.23L412.094 631.539L420.223 614.097" fill="white"/>
<path d="M452.736 724.688C452.682 724.688 452.629 724.688 452.575 724.688L381.29 716.395C355.835 713.452 334.819 695.582 327.76 670.917C324.712 660.163 324.551 648.713 327.332 637.906L362.413 500.617V500.563C367.119 484.94 378.937 481.088 390.97 479.215L424.714 474.026C425.569 473.865 426.425 474.507 426.532 475.363C426.639 476.219 426.051 477.075 425.195 477.182L391.451 482.372C378.723 484.352 369.472 488.311 365.461 501.419L330.38 638.655C327.76 648.927 327.92 659.789 330.808 670.008C337.493 693.442 357.44 710.402 381.611 713.185L451.613 721.317L479.207 636.675L411.986 633.09C411.451 633.037 410.97 632.769 410.703 632.288C410.435 631.806 410.382 631.271 410.649 630.79L418.778 613.348C419.152 612.545 420.115 612.224 420.917 612.599C421.719 612.973 422.04 613.936 421.666 614.739L414.5 630.041L481.453 633.626C481.934 633.626 482.415 633.893 482.683 634.321C482.95 634.749 483.057 635.231 482.897 635.712L454.233 723.564C454.073 724.206 453.431 724.688 452.736 724.688Z" fill="#2E2F33"/>
<path d="M495.729 436.573V453.213C490.167 457.868 481.878 460.81 472.68 460.81C465.942 460.81 459.739 459.259 454.712 456.583V436.573H495.729Z" fill="#2E2F33"/>
<path d="M472.68 462.416C465.888 462.416 459.418 460.864 453.963 457.975C453.428 457.707 453.107 457.172 453.107 456.53V436.52C453.107 435.611 453.803 434.915 454.712 434.915H495.729C496.638 434.915 497.333 435.611 497.333 436.52V453.16C497.333 453.641 497.119 454.069 496.745 454.39C490.702 459.527 481.932 462.416 472.68 462.416ZM456.316 455.567C461.129 457.921 466.798 459.206 472.68 459.206C480.862 459.206 488.616 456.744 494.124 452.464V438.179H456.316V455.567Z" fill="#2E2F33"/>
<path d="M385.033 780.171C384.392 780.171 383.75 779.796 383.536 779.154C383.215 778.352 383.643 777.388 384.445 777.067L424.071 762.033L432.307 754.489C432.949 753.901 433.965 753.954 434.553 754.596C435.141 755.238 435.088 756.255 434.446 756.843L425.997 764.601C425.836 764.762 425.676 764.869 425.462 764.922L385.568 780.064C385.408 780.117 385.194 780.171 385.033 780.171Z" fill="#2E2F33"/>
<path d="M557.87 309.663C557.87 293.612 545.624 280.451 530.009 278.953C527.174 270.232 520.49 263.169 512.04 259.852C507.548 248.295 496.372 240.109 483.27 240.109C470.97 240.109 460.382 247.279 455.408 257.712C447.654 258.086 440.649 261.35 435.408 266.433C432.627 264.988 429.472 264.132 426.103 264.132C415.033 264.132 406.102 273.121 406.102 284.142C406.102 284.57 406.102 284.999 406.156 285.427C400.969 290.937 397.813 298.374 397.813 306.507C397.813 316.993 403.054 326.303 411.076 331.867C410.487 333.686 410.167 335.559 410.167 337.539C410.167 347.758 418.456 356.051 428.67 356.051C438.884 356.051 447.173 347.758 447.173 337.539C447.173 335.559 446.852 333.633 446.264 331.867C450.756 328.711 454.392 324.43 456.692 319.401C456.799 319.401 456.852 319.401 456.959 319.401C465.515 319.401 473.216 315.923 478.831 310.305C483.751 315.281 490.329 318.545 497.709 319.24C499.473 324.591 502.628 329.299 506.746 332.884C505.837 335.077 505.302 337.485 505.302 340C505.302 350.219 513.591 358.512 523.805 358.512C534.019 358.512 542.308 350.219 542.308 340C542.308 338.876 542.201 337.753 541.988 336.629C551.453 331.386 557.87 321.274 557.87 309.663Z" fill="#2E2F33"/>
<path d="M523.807 360.117C512.737 360.117 503.699 351.075 503.699 340C503.699 337.699 504.074 335.452 504.822 333.312C501.079 329.781 498.245 325.501 496.48 320.686C489.902 319.829 483.699 316.94 478.779 312.5C472.95 317.796 465.57 320.793 457.656 320.953C455.41 325.501 452.094 329.407 448.03 332.456C448.458 334.115 448.671 335.827 448.671 337.539C448.671 348.614 439.634 357.656 428.564 357.656C417.494 357.656 408.457 348.614 408.457 337.539C408.457 335.827 408.671 334.115 409.098 332.456C400.916 326.303 396.104 316.673 396.104 306.454C396.104 298.428 399.045 290.724 404.392 284.785C404.392 284.571 404.392 284.303 404.392 284.089C404.392 272.158 414.072 262.474 425.997 262.474C429.099 262.474 432.201 263.17 435.035 264.454C440.383 259.585 447.121 256.696 454.287 256.107C459.795 245.353 471.025 238.451 483.164 238.451C496.426 238.451 508.138 246.316 513.165 258.568C521.561 262.1 528.031 268.894 531.079 277.455C547.283 279.542 559.369 293.185 559.369 309.664C559.369 321.06 553.379 331.654 543.593 337.486C543.7 338.342 543.754 339.144 543.754 340C543.914 351.075 534.876 360.117 523.807 360.117ZM478.832 308.701C479.26 308.701 479.688 308.861 479.955 309.182C484.768 313.998 491.079 316.994 497.817 317.689C498.459 317.743 498.993 318.171 499.207 318.813C500.812 323.789 503.806 328.283 507.764 331.761C508.298 332.189 508.459 332.938 508.191 333.58C507.336 335.666 506.908 337.807 506.908 340.107C506.908 349.417 514.502 357.014 523.807 357.014C533.112 357.014 540.705 349.417 540.705 340.107C540.705 339.091 540.598 338.074 540.438 337.057C540.331 336.362 540.652 335.72 541.24 335.345C550.545 330.156 556.321 320.364 556.321 309.717C556.321 294.576 544.984 282.056 529.903 280.612C529.261 280.558 528.727 280.13 528.513 279.488C525.785 271.195 519.582 264.561 511.453 261.351C511.026 261.19 510.705 260.869 510.544 260.441C506.159 249.098 495.41 241.715 483.271 241.715C472.041 241.715 461.666 248.242 456.853 258.408C456.586 258.943 456.051 259.264 455.463 259.317C448.351 259.692 441.612 262.635 436.532 267.61C436.051 268.092 435.302 268.199 434.66 267.878C431.987 266.487 429.099 265.738 426.104 265.738C415.944 265.738 407.708 273.977 407.708 284.143C407.708 284.517 407.708 284.892 407.762 285.32C407.815 285.748 407.655 286.176 407.334 286.497C402.253 291.954 399.419 299.07 399.419 306.507C399.419 316.084 404.125 325.073 411.986 330.53C412.574 330.958 412.788 331.654 412.574 332.349C412.04 334.008 411.772 335.773 411.772 337.539C411.772 346.849 419.366 354.446 428.671 354.446C437.976 354.446 445.57 346.849 445.57 337.539C445.57 335.773 445.302 334.008 444.768 332.349C444.554 331.654 444.821 330.958 445.356 330.53C449.634 327.534 453.057 323.468 455.249 318.706C455.517 318.117 456.105 317.796 456.693 317.796H456.96C464.821 317.796 472.148 314.747 477.709 309.182C477.977 308.861 478.405 308.701 478.832 308.701Z" fill="#2E2F33"/>
<path d="M557.07 857.59C556.749 857.59 556.428 857.483 556.16 857.322L527.818 838.008C527.069 837.526 526.909 836.509 527.39 835.76C527.871 835.011 528.887 834.851 529.636 835.332L557.551 854.326L579.744 854.112C580.599 854.112 581.348 854.807 581.348 855.717C581.348 856.627 580.653 857.322 579.744 857.322L557.07 857.59Z" fill="#2E2F33"/>
<path d="M451.693 387.893C455.804 379.214 449.334 367.533 437.243 361.801C425.153 356.069 412.019 358.458 407.909 367.137C403.799 375.815 410.268 387.497 422.359 393.229C434.45 398.961 447.583 396.572 451.693 387.893Z" fill="white"/>
<path d="M435.731 397.998C425.463 397.998 414.233 392.326 408.564 383.605C405.035 378.148 404.126 372.423 406.051 367.447C407.869 362.792 411.987 359.368 417.602 357.924C429.206 354.927 444.18 361.027 451.025 371.567C454.555 377.024 455.464 382.749 453.538 387.725C451.72 392.38 447.603 395.804 441.987 397.248C439.955 397.73 437.87 397.998 435.731 397.998ZM411.238 381.84C417.388 391.31 430.811 396.767 441.132 394.092C445.731 392.915 449.1 390.186 450.544 386.494C452.095 382.482 451.292 377.773 448.351 373.226C442.201 363.755 428.779 358.298 418.457 360.973C413.858 362.15 410.489 364.879 409.046 368.571C407.495 372.583 408.297 377.292 411.238 381.84Z" fill="#2E2F33"/>
<path d="M525.271 391.499C537.361 385.767 543.831 374.085 539.721 365.407C535.61 356.728 522.477 354.339 510.386 360.071C498.296 365.803 491.826 377.485 495.936 386.163C500.046 394.842 513.18 397.231 525.271 391.499Z" fill="white"/>
<path d="M511.933 396.178C509.794 396.178 507.708 395.911 505.676 395.429C500.007 393.984 495.943 390.56 494.125 385.905C492.2 380.93 493.055 375.205 496.638 369.748C503.483 359.207 518.457 353.108 530.061 356.104C535.73 357.549 539.794 360.973 541.612 365.628C543.538 370.604 542.682 376.328 539.099 381.786C533.43 390.507 522.2 396.178 511.933 396.178ZM523.644 358.512C514.446 358.512 504.392 363.648 499.312 371.46C496.371 376.007 495.569 380.716 497.12 384.728C498.563 388.42 501.879 391.095 506.532 392.326C516.906 395.001 530.329 389.49 536.425 380.074C539.366 375.526 540.168 370.818 538.618 366.805C537.174 363.113 533.858 360.438 529.206 359.207C527.388 358.726 525.516 358.512 523.644 358.512Z" fill="#2E2F33"/>
<path d="M527.014 379.164C527.014 424.749 497.655 453.533 473.697 453.533C452.788 453.533 420.541 424.695 420.541 379.164C420.541 351.396 417.119 326.838 428.616 311.857C435.942 302.28 449.419 296.662 473.751 296.662C493.858 296.662 506.372 301.959 514.179 310.947C527.014 325.821 527.014 350.807 527.014 379.164Z" fill="white"/>
<path d="M473.696 455.139C462.252 455.139 448.615 447.22 438.08 434.433C425.781 419.559 418.989 399.924 418.989 379.111C418.989 373.814 418.882 368.571 418.722 363.541C418.187 341.98 417.759 323.361 427.385 310.841C435.674 300.033 450.434 295.004 473.803 295.004C493.215 295.004 506.798 299.873 515.408 309.878C528.617 325.18 528.617 350.166 528.617 379.111C528.617 400.245 522.2 419.88 510.595 434.38C500.221 447.381 486.424 455.139 473.696 455.139ZM473.803 298.268C451.503 298.268 437.546 302.922 429.898 312.874C420.968 324.484 421.396 342.622 421.93 363.541C422.037 368.571 422.198 373.814 422.198 379.164C422.198 399.174 428.722 418.115 440.54 432.4C450.487 444.438 463.215 451.929 473.696 451.929C498.135 451.929 525.408 422.02 525.408 379.164C525.408 350.861 525.408 326.41 513.002 312.018C505.034 302.762 492.199 298.268 473.803 298.268Z" fill="#2E2F33"/>
<path d="M471.452 406.504C471.078 406.504 470.65 406.343 470.383 406.076C469.741 405.487 469.688 404.471 470.276 403.829L476.854 396.713L472.094 353.75C471.987 352.894 472.629 352.091 473.538 351.984C474.394 351.877 475.196 352.519 475.303 353.429L480.169 397.141C480.223 397.622 480.062 398.05 479.741 398.425L472.682 406.076C472.308 406.343 471.88 406.504 471.452 406.504Z" fill="#2E2F33"/>
<path d="M514.233 310.947C499.795 308.165 488.03 316.351 468.938 316.351C449.687 316.351 449.687 308.058 434.606 309.556C432.467 309.77 430.542 310.626 428.724 311.857C436.05 302.28 449.526 296.662 473.858 296.662C493.912 296.662 506.426 301.905 514.233 310.947Z" fill="#2E2F33"/>
<path d="M514.02 342.141C513.806 342.141 513.539 342.087 513.325 341.98C513.165 341.927 498.352 334.757 488.137 339.679C487.335 340.054 486.373 339.733 485.998 338.93C485.624 338.128 485.945 337.165 486.747 336.79C498.405 331.172 514.127 338.77 514.769 339.091C515.571 339.465 515.892 340.428 515.518 341.231C515.197 341.82 514.609 342.141 514.02 342.141Z" fill="#2E2F33"/>
<path d="M447.174 377.559C449.389 377.559 451.185 375.188 451.185 372.263C451.185 369.337 449.389 366.966 447.174 366.966C444.959 366.966 443.163 369.337 443.163 372.263C443.163 375.188 444.959 377.559 447.174 377.559Z" fill="#2E2F33"/>
<path d="M447.174 379.164C444.072 379.164 441.559 376.061 441.559 372.262C441.559 368.464 444.072 365.414 447.174 365.414C450.275 365.414 452.789 368.517 452.789 372.262C452.789 376.061 450.275 379.164 447.174 379.164ZM447.174 368.624C445.89 368.624 444.767 370.283 444.767 372.262C444.767 374.242 445.837 375.954 447.174 375.954C448.457 375.954 449.58 374.296 449.58 372.262C449.58 370.283 448.457 368.624 447.174 368.624Z" fill="#2E2F33"/>
<path d="M500.704 377.559C502.919 377.559 504.715 375.188 504.715 372.263C504.715 369.337 502.919 366.966 500.704 366.966C498.489 366.966 496.693 369.337 496.693 372.263C496.693 375.188 498.489 377.559 500.704 377.559Z" fill="#2E2F33"/>
<path d="M500.705 379.164C497.603 379.164 495.09 376.061 495.09 372.262C495.09 368.464 497.603 365.414 500.705 365.414C503.807 365.414 506.32 368.517 506.32 372.262C506.32 376.061 503.807 379.164 500.705 379.164ZM500.705 368.624C499.421 368.624 498.298 370.283 498.298 372.262C498.298 374.242 499.368 375.954 500.705 375.954C501.988 375.954 503.111 374.296 503.111 372.262C503.111 370.283 501.988 368.624 500.705 368.624Z" fill="#2E2F33"/>
<path d="M452.95 368.624H441.452C440.543 368.624 439.848 367.929 439.848 367.019C439.848 366.11 440.543 365.414 441.452 365.414H452.95C453.859 365.414 454.554 366.11 454.554 367.019C454.554 367.929 453.805 368.624 452.95 368.624Z" fill="#2E2F33"/>
<path d="M505.999 368.624H495.464C494.555 368.624 493.859 367.929 493.859 367.019C493.859 366.11 494.555 365.414 495.464 365.414H505.999C506.908 365.414 507.603 366.11 507.603 367.019C507.603 367.929 506.854 368.624 505.999 368.624Z" fill="#2E2F33"/>
<path d="M434.607 342.14C434.019 342.14 433.431 341.819 433.163 341.231C432.789 340.428 433.11 339.465 433.912 339.091C434.5 338.823 447.977 332.349 461.72 336.683C462.576 336.951 463.057 337.86 462.79 338.716C462.522 339.572 461.613 340.054 460.758 339.786C448.19 335.827 435.463 341.98 435.356 342.033C435.089 342.087 434.821 342.14 434.607 342.14Z" fill="#2E2F33"/>
<path d="M447.387 759.305C447.387 759.305 482.575 764.601 508.19 759.305L512.147 891.083H447.761L447.387 759.305Z" fill="white"/>
<path d="M512.147 892.688H447.761C446.852 892.688 446.157 891.992 446.157 891.083L445.836 759.304C445.836 758.823 446.05 758.395 446.371 758.074C446.692 757.753 447.173 757.646 447.654 757.699C448.029 757.753 482.896 762.889 507.923 757.699C508.404 757.592 508.885 757.699 509.26 758.02C509.634 758.288 509.848 758.769 509.848 759.251L513.805 891.029C513.805 891.457 513.645 891.885 513.377 892.206C513.003 892.474 512.575 892.688 512.147 892.688ZM449.365 889.478H510.543L506.693 761.284C484.714 765.35 456.478 762.14 449.045 761.177L449.365 889.478Z" fill="#2E2F33"/>
<path d="M482.576 877.225C481.666 877.225 480.971 876.476 480.971 875.566L481.613 846.353L477.977 787.928C477.923 787.018 478.618 786.269 479.474 786.216C480.33 786.162 481.132 786.858 481.185 787.714L484.822 846.246C484.822 846.3 484.822 846.353 484.822 846.407L484.18 875.727C484.18 876.529 483.485 877.225 482.576 877.225Z" fill="#2E2F33"/>
<path d="M477.121 789.426C458.885 789.426 447.602 787.179 447.441 787.126C446.585 786.965 445.997 786.109 446.211 785.253C446.372 784.397 447.227 783.809 448.083 784.023C448.35 784.076 473.217 788.998 508.779 784.023C509.635 783.916 510.491 784.504 510.598 785.414C510.705 786.323 510.116 787.126 509.207 787.233C497.121 788.838 486.265 789.426 477.121 789.426Z" fill="#2E2F33"/>
<path d="M478.458 790.658C487.23 790.658 494.341 783.543 494.341 774.767C494.341 765.991 487.23 758.877 478.458 758.877C469.686 758.877 462.575 765.991 462.575 774.767C462.575 783.543 469.686 790.658 478.458 790.658Z" fill="white"/>
<path d="M478.458 792.262C468.832 792.262 460.971 784.397 460.971 774.767C460.971 765.136 468.832 757.271 478.458 757.271C488.084 757.271 495.945 765.136 495.945 774.767C495.945 784.397 488.137 792.262 478.458 792.262ZM478.458 760.482C470.597 760.482 464.179 766.902 464.179 774.767C464.179 782.632 470.597 789.052 478.458 789.052C486.319 789.052 492.736 782.632 492.736 774.767C492.736 766.902 486.372 760.482 478.458 760.482Z" fill="#2E2F33"/>
<path d="M452.735 560.38C452.468 560.38 452.201 560.326 451.987 560.166C451.185 559.737 450.917 558.774 451.345 557.972C454.233 552.622 451.292 543.472 451.238 543.419C450.971 542.563 451.398 541.653 452.254 541.386C453.11 541.118 454.019 541.546 454.286 542.402C454.447 542.83 457.709 552.943 454.179 559.524C453.858 560.059 453.324 560.38 452.735 560.38Z" fill="#2E2F33"/>
<path d="M454.712 482.586C453.803 482.586 453.107 481.89 453.107 480.981V472.634C453.107 471.725 453.803 471.029 454.712 471.029C455.621 471.029 456.316 471.725 456.316 472.634V480.981C456.316 481.837 455.567 482.586 454.712 482.586Z" fill="#2E2F33"/>
<path d="M495.73 480.339C494.821 480.339 494.126 479.643 494.126 478.734V472.099C494.126 471.19 494.821 470.494 495.73 470.494C496.639 470.494 497.335 471.19 497.335 472.099V478.734C497.335 479.59 496.639 480.339 495.73 480.339Z" fill="#2E2F33"/>
<path d="M478.458 644.272L508.191 655.027L475.73 654.384L478.458 644.272Z" fill="white"/>
<path d="M508.191 656.632L475.73 655.989C475.249 655.989 474.767 655.722 474.5 655.347C474.179 654.973 474.126 654.438 474.233 653.956L476.907 643.844C477.013 643.416 477.334 643.042 477.709 642.828C478.083 642.614 478.564 642.614 478.992 642.721L508.725 653.475C509.474 653.742 509.902 654.491 509.741 655.294C509.634 656.096 508.993 656.632 508.191 656.632ZM477.816 652.833L498.458 653.261L479.527 646.412L477.816 652.833Z" fill="#2E2F33"/>
<path d="M575.197 781.134C575.037 781.134 574.823 781.08 574.663 781.027L528.138 764.869C527.924 764.816 527.763 764.709 527.603 764.548L523.164 760.482L523.111 760.428L519.153 756.79C518.512 756.202 518.458 755.185 519.046 754.543C519.635 753.901 520.651 753.847 521.292 754.436L523.271 756.255L524.501 751.012C524.608 750.53 524.982 750.102 525.41 749.888C525.891 749.674 526.426 749.728 526.854 749.942L575.999 778.084C576.695 778.512 577.016 779.368 576.641 780.117C576.374 780.813 575.786 781.134 575.197 781.134ZM529.528 761.98L559.475 772.359L527.175 753.847L526.052 758.716L529.528 761.98Z" fill="#2E2F33"/>
<path opacity="0.68" d="M490.49 729.93C485.517 729.502 481.827 725.169 482.254 720.193L490.062 625.492L508.031 626.99L500.223 721.691C499.848 726.667 495.463 730.358 490.49 729.93Z" fill="white"/>
<path d="M491.239 731.589C490.918 731.589 490.65 731.589 490.33 731.536C484.501 731.054 480.115 725.918 480.597 720.086L488.404 625.385C488.458 624.957 488.618 624.583 488.939 624.315C489.26 624.048 489.688 623.887 490.116 623.941L508.084 625.439C508.993 625.492 509.635 626.295 509.528 627.151L501.72 721.852C501.506 724.687 500.169 727.256 497.977 729.075C496.158 730.68 493.752 731.589 491.239 731.589ZM491.506 627.258L483.859 720.354C483.538 724.42 486.586 728.005 490.65 728.379C492.629 728.54 494.554 727.951 496.052 726.667C497.549 725.383 498.511 723.564 498.672 721.638L506.319 628.542L491.506 627.258Z" fill="#2E2F33"/>
<g opacity="0.84">
<path opacity="0.84" d="M490.49 729.932C485.517 729.504 481.827 725.17 482.254 720.194L486.265 671.399L504.234 672.898L500.223 721.692C499.848 726.668 495.463 730.36 490.49 729.932Z" fill="url(#paint0_linear)"/>
<path opacity="0.84" d="M491.239 731.59C490.918 731.59 490.65 731.59 490.33 731.537C484.501 731.055 480.115 725.919 480.597 720.087L484.607 671.292C484.661 670.383 485.463 669.741 486.319 669.848L504.287 671.346C504.715 671.399 505.089 671.56 505.357 671.881C505.624 672.202 505.784 672.63 505.731 673.058L501.72 721.853C501.506 724.688 500.169 727.256 497.977 729.076C496.158 730.681 493.752 731.59 491.239 731.59ZM487.709 673.165L483.805 720.355C483.484 724.421 486.533 728.006 490.597 728.38C492.576 728.541 494.501 727.952 495.998 726.668C497.495 725.384 498.458 723.565 498.618 721.639L502.522 674.449L487.709 673.165Z" fill="#2E2F33"/>
</g>
<path d="M475.731 654.385L459.688 703.608H512.149L516.801 669.366L515.946 655.241L475.731 654.385Z" fill="white"/>
<path d="M512.148 705.212H459.687C459.152 705.212 458.671 704.945 458.404 704.57C458.136 704.196 458.029 703.607 458.19 703.126L474.233 653.903C474.447 653.207 475.088 652.779 475.784 652.779L515.945 653.635C516.801 653.635 517.442 654.331 517.496 655.133L518.351 669.258C518.351 669.365 518.351 669.472 518.351 669.579L513.699 703.821C513.645 704.624 512.95 705.212 512.148 705.212ZM461.933 702.002H510.758L515.196 669.312L514.448 656.846L476.907 656.043L461.933 702.002Z" fill="#2E2F33"/>
<path d="M515.946 670.971H495.517C494.608 670.971 493.913 670.275 493.913 669.366C493.913 668.456 494.608 667.761 495.517 667.761H515.946C516.855 667.761 517.55 668.456 517.55 669.366C517.55 670.275 516.801 670.971 515.946 670.971Z" fill="#2E2F33"/>
<path d="M514.287 682.153L489.635 681.992C488.725 681.992 488.03 681.243 488.03 680.387C488.03 679.531 488.725 678.782 489.635 678.782L514.287 678.943C515.197 678.943 515.892 679.692 515.892 680.548C515.892 681.457 515.143 682.153 514.287 682.153Z" fill="#2E2F33"/>
<path d="M512.255 693.282H485.677C484.767 693.282 484.072 692.586 484.072 691.676C484.072 690.767 484.767 690.071 485.677 690.071H512.255C513.164 690.071 513.859 690.767 513.859 691.676C513.859 692.586 513.164 693.282 512.255 693.282Z" fill="#2E2F33"/>
<path d="M508.03 621.479L491.398 620.088C488.939 619.874 486.799 621.693 486.639 624.155L486.372 627.365C486.158 629.826 487.976 631.966 490.436 632.127L507.067 633.518C509.527 633.732 511.666 631.913 511.827 629.451L512.094 626.241C512.255 623.834 510.436 621.693 508.03 621.479Z" fill="white"/>
<path d="M507.389 635.177C507.229 635.177 507.068 635.177 506.908 635.177L490.276 633.785C488.672 633.678 487.228 632.929 486.159 631.699C485.143 630.468 484.608 628.917 484.768 627.312L485.036 624.101C485.143 622.496 485.891 621.052 487.121 619.982C488.351 618.965 489.902 618.43 491.506 618.591L508.138 619.982C511.453 620.249 513.913 623.192 513.646 626.509L513.378 629.719C513.165 632.769 510.491 635.177 507.389 635.177ZM491.079 621.694C490.437 621.694 489.795 621.908 489.26 622.389C488.672 622.871 488.351 623.566 488.298 624.315L488.03 627.526C487.977 628.275 488.191 629.024 488.672 629.559C489.153 630.147 489.849 630.468 490.597 630.522L507.229 631.913C508.779 632.02 510.17 630.896 510.277 629.345L510.544 626.135C510.651 624.583 509.528 623.192 507.977 623.085L491.346 621.694C491.186 621.747 491.132 621.694 491.079 621.694Z" fill="#2E2F33"/>
<path d="M500.917 608.212C498.297 607.998 496.051 609.924 495.837 612.545L495.195 620.464L504.607 621.213L505.249 613.294C505.463 610.726 503.538 608.426 500.917 608.212Z" fill="white"/>
<path d="M504.608 622.818C504.555 622.818 504.501 622.818 504.501 622.818L495.089 622.069C494.18 622.015 493.538 621.213 493.645 620.357L494.287 612.438C494.448 610.78 495.196 609.228 496.48 608.158C497.763 607.088 499.421 606.553 501.079 606.66C502.736 606.82 504.287 607.569 505.357 608.854C506.426 610.138 506.961 611.796 506.854 613.455L506.212 621.373C506.159 621.801 505.999 622.176 505.678 622.443C505.357 622.711 504.982 622.818 504.608 622.818ZM496.907 618.966L503.111 619.501L503.646 613.187C503.699 612.385 503.432 611.529 502.897 610.94C502.362 610.352 501.613 609.924 500.758 609.87C499.956 609.817 499.1 610.084 498.512 610.619C497.87 611.154 497.496 611.903 497.442 612.759L496.907 618.966Z" fill="#2E2F33"/>
<path d="M462.575 420.416C462.575 420.416 468.939 420.416 477.816 423.252L462.575 420.416Z" fill="white"/>
<path d="M477.87 424.856C477.709 424.856 477.549 424.856 477.388 424.803C468.832 422.074 462.682 422.021 462.629 422.021C461.72 422.021 461.024 421.325 461.024 420.416C461.024 419.506 461.72 418.811 462.629 418.811C462.896 418.811 469.313 418.864 478.351 421.7C479.207 421.967 479.688 422.877 479.367 423.733C479.153 424.428 478.511 424.856 477.87 424.856Z" fill="#2E2F33"/>
<path d="M458.672 423.25C458.672 423.25 464.929 422.127 461.025 415.546L458.672 423.25Z" fill="white"/>
<path d="M458.672 424.856C457.923 424.856 457.228 424.321 457.067 423.518C456.907 422.662 457.495 421.806 458.351 421.645C458.404 421.645 460.009 421.271 460.49 420.201C460.971 419.131 460.276 417.526 459.581 416.349C459.1 415.6 459.367 414.583 460.116 414.155C460.864 413.673 461.88 413.941 462.308 414.69C463.912 417.312 464.233 419.612 463.378 421.538C462.201 424.16 459.206 424.749 458.886 424.802C458.886 424.856 458.779 424.856 458.672 424.856Z" fill="#2E2F33"/>
<path d="M454.715 403.669C454.715 403.669 446.319 405.06 447.282 415.547L454.715 403.669Z" fill="white"/>
<path d="M447.282 417.152C446.48 417.152 445.785 416.51 445.678 415.707C444.555 403.883 454.341 402.117 454.448 402.117C455.303 401.957 456.159 402.545 456.266 403.455C456.426 404.311 455.838 405.167 454.929 405.274C454.234 405.381 448.031 406.772 448.833 415.386C448.94 416.296 448.244 417.045 447.389 417.152C447.389 417.152 447.335 417.152 447.282 417.152Z" fill="#2E2F33"/>
</g>
<defs>
<linearGradient id="paint0_linear" x1="482.212" y1="700.705" x2="504.248" y2="700.705" gradientUnits="userSpaceOnUse">
<stop stop-color="#FF19A9"/>
<stop offset="1" stop-color="#BC1AFF"/>
</linearGradient>
</defs>
</svg>
