<svg width="64" height="64" viewBox="0 0 64 64" fill="none" xmlns="http://www.w3.org/2000/svg">
<path d="M0 32C0 14.3269 14.3269 0 32 0C49.6731 0 64 14.3269 64 32C64 49.6731 49.6731 64 32 64C14.3269 64 0 49.6731 0 32Z" fill="#2787F5"/>
<path fill-rule="evenodd" clip-rule="evenodd" d="M49.8172 23.0451C50.0858 22.2214 49.8172 21.6304 48.5816 21.6304H44.4449C44.0695 21.6011 43.6944 21.6909 43.3729 21.887C43.0514 22.0831 42.7999 22.3756 42.6542 22.7228C41.3672 25.5722 39.6654 28.2153 37.6043 30.5663C36.6552 31.4617 36.2254 31.7482 35.7061 31.7482C35.1867 31.7482 35.0614 31.4617 35.0614 30.6558V23.0451C35.0614 22.0602 34.757 21.6304 33.8974 21.6304H27.4507C27.1969 21.6106 26.9455 21.6915 26.7511 21.8558C26.5567 22.0201 26.4348 22.2544 26.412 22.5079C26.412 23.4391 27.8805 23.654 28.0416 26.2506V31.9094C28.0416 33.1629 27.7909 33.3778 27.2716 33.3778C25.8927 33.3778 22.5082 28.5965 20.5026 23.1168C20.1086 22.0602 19.7146 21.6304 18.7118 21.6304H14.6647C13.4828 21.6304 13.25 22.1498 13.25 22.7228C13.25 23.7256 14.6468 28.7756 19.7146 35.4551C21.1229 37.5124 22.9863 39.2175 25.1602 40.438C27.3342 41.6586 29.7602 42.3617 32.2499 42.4927C34.8465 42.4927 35.1688 41.9376 35.1688 40.9885V37.5502C35.1688 36.4579 35.4195 36.2251 36.2433 36.2251C37.067 36.2251 37.8908 36.5116 40.3262 38.7142C43.1019 41.3108 43.5675 42.4927 45.1254 42.4927H49.2262C50.3902 42.4927 51.017 41.9376 50.6409 40.8631C49.7449 39.1901 48.57 37.6822 47.1669 36.4042C46.2178 35.3476 44.7852 34.2015 44.3375 33.6464C43.8898 33.0913 43.9077 32.5719 44.3375 31.8556C44.3375 31.8736 49.3337 25.2836 49.8172 23.0451Z" fill="white"/>
</svg>
